<svg width="158" height="22" viewBox="0 0 158 22" fill="none" xmlns="http://www.w3.org/2000/svg">
<path fill-rule="evenodd" clip-rule="evenodd" d="M7.87313 0.0621503C7.87313 0.096333 7.7901 0.124301 7.68863 0.124301C7.58715 0.124301 7.50412 0.152268 7.50412 0.186451C7.50412 0.220634 7.44877 0.248601 7.38112 0.248601C7.31347 0.248601 7.25812 0.276569 7.25812 0.310752C7.25812 0.344934 7.2139 0.372902 7.15978 0.372902C7.10572 0.372902 6.98389 0.456805 6.88912 0.559353C6.79434 0.661901 6.68561 0.745804 6.64754 0.745804C6.5575 0.745804 6.02811 1.28079 6.02811 1.37178C6.02811 1.41025 5.94508 1.52013 5.8436 1.61591C5.74213 1.71168 5.6591 1.82865 5.6591 1.8757C5.6591 1.92281 5.60375 2.00168 5.5361 2.05096C5.46845 2.10025 5.4131 2.1903 5.4131 2.25115C5.4131 2.31193 5.38542 2.36171 5.3516 2.36171C5.31777 2.36171 5.2901 2.41765 5.2901 2.48601C5.2901 2.55438 5.26242 2.61031 5.22859 2.61031C5.19477 2.61031 5.16709 2.66625 5.16709 2.73461C5.16709 2.80298 5.13942 2.85891 5.10559 2.85891C5.07177 2.85891 5.04409 2.91485 5.04409 2.98322C5.04409 3.05158 5.01642 3.10752 4.98259 3.10752C4.94877 3.10752 4.92109 3.16345 4.92109 3.23182C4.92109 3.30018 4.89342 3.35612 4.85959 3.35612C4.82577 3.35612 4.79809 3.41205 4.79809 3.48042C4.79809 3.54878 4.77041 3.60472 4.73659 3.60472C4.70276 3.60472 4.67509 3.68862 4.67509 3.79117C4.67509 3.89372 4.64741 3.97762 4.61359 3.97762C4.57976 3.97762 4.55209 4.06152 4.55209 4.16407C4.55209 4.26662 4.52441 4.35052 4.49059 4.35052C4.45676 4.35052 4.42908 4.46239 4.42908 4.59912C4.42908 4.73585 4.40141 4.84772 4.36758 4.84772C4.33376 4.84772 4.30608 4.93163 4.30608 5.03418C4.30608 5.19993 4.2856 5.22063 4.12158 5.22063C4.0201 5.22063 3.93708 5.24859 3.93708 5.28278C3.93708 5.31696 3.85405 5.34493 3.75258 5.34493C3.6511 5.34493 3.56807 5.37289 3.56807 5.40708C3.56807 5.44126 3.48505 5.46923 3.38357 5.46923C3.2821 5.46923 3.19907 5.4972 3.19907 5.53138C3.19907 5.56556 3.11604 5.59353 3.01457 5.59353C2.91309 5.59353 2.83007 5.6215 2.83007 5.65568C2.83007 5.68986 2.74704 5.71783 2.64556 5.71783C2.54409 5.71783 2.46106 5.7458 2.46106 5.77998C2.46106 5.81416 2.37803 5.84213 2.27656 5.84213C2.17508 5.84213 2.09206 5.8701 2.09206 5.90428C2.09206 5.93846 2.04931 5.96643 1.99704 5.96643C1.94476 5.96643 1.83406 6.03511 1.75103 6.11901C1.62145 6.2499 1.60005 6.32926 1.60005 6.67836C1.60005 6.90813 1.5733 7.08514 1.53855 7.08514C1.50343 7.08514 1.47705 7.27159 1.47705 7.52019C1.47705 7.76879 1.45066 7.95524 1.41555 7.95524C1.37969 7.95524 1.35405 8.16239 1.35405 8.45244C1.35405 8.7425 1.3284 8.94965 1.29255 8.94965C1.25669 8.94965 1.23104 9.15679 1.23104 9.44685C1.23104 9.7369 1.2054 9.94405 1.16954 9.94405C1.13369 9.94405 1.10804 10.1512 1.10804 10.4413C1.10804 10.7313 1.0824 10.9385 1.04654 10.9385C1.01143 10.9385 0.985042 11.1249 0.985042 11.3735C0.985042 11.6221 0.958658 11.8086 0.923541 11.8086C0.887686 11.8086 0.86204 12.0157 0.86204 12.3058C0.86204 12.5958 0.836394 12.803 0.800539 12.803C0.764684 12.803 0.739038 13.0101 0.739038 13.3002C0.739038 13.5902 0.713393 13.7974 0.677538 13.7974C0.642421 13.7974 0.616037 13.9838 0.616037 14.2324C0.616037 14.481 0.589653 14.6675 0.554536 14.6675C0.518681 14.6675 0.493035 14.8746 0.493035 15.1647C0.493035 15.4547 0.46739 15.6619 0.431535 15.6619C0.39568 15.6619 0.370034 15.869 0.370034 16.1591C0.370034 16.4491 0.344388 16.6563 0.308533 16.6563C0.272678 16.6563 0.247032 16.8634 0.247032 17.1535C0.247032 17.4435 0.221386 17.6507 0.185531 17.6507C0.150415 17.6507 0.124031 17.8371 0.124031 18.0857C0.124031 18.3343 0.0976469 18.5208 0.0625299 18.5208C-0.0351948 18.5208 -0.0122549 19.1999 0.0889138 19.3021C0.139406 19.3532 0.296233 19.3909 0.457918 19.3909C0.612531 19.3909 0.739038 19.4189 0.739038 19.453C0.739038 19.4876 0.903061 19.5152 1.10804 19.5152C1.31303 19.5152 1.47705 19.5428 1.47705 19.5773C1.47705 19.6119 1.64107 19.6395 1.84605 19.6395C2.05103 19.6395 2.21506 19.6671 2.21506 19.7017C2.21506 19.7362 2.37908 19.7638 2.58406 19.7638C2.78904 19.7638 2.95307 19.7914 2.95307 19.826C2.95307 19.8605 3.11709 19.8881 3.32207 19.8881C3.52705 19.8881 3.69108 19.9157 3.69108 19.9503C3.69108 19.9848 3.8551 20.0124 4.06008 20.0124C4.26506 20.0124 4.42908 20.04 4.42908 20.0746C4.42908 20.1087 4.56746 20.1367 4.73659 20.1367C4.90572 20.1367 5.04409 20.1647 5.04409 20.1989C5.04409 20.2334 5.20812 20.261 5.4131 20.261C5.61808 20.261 5.7821 20.2886 5.7821 20.3232C5.7821 20.3577 5.94612 20.3853 6.15111 20.3853C6.35609 20.3853 6.52011 20.4129 6.52011 20.4475C6.52011 20.482 6.68413 20.5096 6.88912 20.5096C7.0941 20.5096 7.25812 20.5372 7.25812 20.5718C7.25812 20.6063 7.42214 20.6339 7.62713 20.6339C7.83211 20.6339 7.99613 20.6615 7.99613 20.6961C7.99613 20.7302 8.13451 20.7582 8.30363 20.7582C8.47276 20.7582 8.61114 20.7862 8.61114 20.8204C8.61114 20.8549 8.77516 20.8825 8.98014 20.8825C9.18512 20.8825 9.34915 20.9101 9.34915 20.9447C9.34915 20.9792 9.51317 21.0068 9.71815 21.0068C9.92313 21.0068 10.0872 21.0344 10.0872 21.069C10.0872 21.1035 10.2512 21.1311 10.4562 21.1311C10.6611 21.1311 10.8252 21.1587 10.8252 21.1933C10.8252 21.2278 10.9892 21.2554 11.1942 21.2554C11.3992 21.2554 11.5632 21.283 11.5632 21.3176C11.5632 21.3517 11.7016 21.3797 11.8707 21.3797C12.0398 21.3797 12.1782 21.4077 12.1782 21.4419C12.1782 21.4773 12.3627 21.504 12.6087 21.504H13.0392V11.995V2.48601H12.8547C12.7532 2.48601 12.6702 2.51398 12.6702 2.54816C12.6702 2.58235 12.5895 2.61031 12.4908 2.61031C12.3921 2.61031 12.3 2.64499 12.286 2.68744C12.2437 2.8156 12.0552 2.57856 12.0552 2.3972C12.0552 2.30932 12.0275 2.23741 11.9937 2.23741C11.9599 2.23741 11.9322 2.18148 11.9322 2.11311C11.9322 2.04475 11.9045 1.98881 11.8707 1.98881C11.8369 1.98881 11.8092 1.93903 11.8092 1.87825C11.8092 1.8174 11.7538 1.72734 11.6862 1.67806C11.6185 1.62877 11.5632 1.55177 11.5632 1.5069C11.5632 1.40087 11.161 0.994405 11.056 0.994405C11.0116 0.994405 10.9354 0.93847 10.8867 0.870104C10.8346 0.79714 10.7274 0.745804 10.6271 0.745804C10.5331 0.745804 10.4562 0.717836 10.4562 0.683653C10.4562 0.649471 10.3012 0.621503 10.1118 0.621503C9.80856 0.621503 9.74693 0.599253 9.59515 0.435052C9.50038 0.332504 9.37854 0.248601 9.32449 0.248601C9.27036 0.248601 9.22615 0.220634 9.22615 0.186451C9.22615 0.152268 9.14312 0.124301 9.04164 0.124301C8.94017 0.124301 8.85714 0.096333 8.85714 0.0621503C8.85714 0.0259167 8.65216 0 8.36514 0C8.07811 0 7.87313 0.0259167 7.87313 0.0621503ZM8.85714 0.843443C8.85714 0.955873 8.71329 1.11871 8.61391 1.11871C8.52504 1.11871 7.99613 1.65463 7.99613 1.74468C7.99613 1.78315 7.9131 1.89304 7.81163 1.98881C7.71015 2.08458 7.62713 2.2077 7.62713 2.26233C7.62713 2.31703 7.59945 2.36171 7.56562 2.36171C7.5318 2.36171 7.50412 2.41765 7.50412 2.48601C7.50412 2.55438 7.47645 2.61031 7.44262 2.61031C7.4088 2.61031 7.38112 2.66625 7.38112 2.73461C7.38112 2.80298 7.35345 2.85891 7.31962 2.85891C7.2858 2.85891 7.25812 2.91485 7.25812 2.98322C7.25812 3.05158 7.23045 3.10752 7.19662 3.10752C7.16279 3.10752 7.13512 3.19142 7.13512 3.29397C7.13512 3.39651 7.10744 3.48042 7.07362 3.48042C7.03979 3.48042 7.01212 3.56432 7.01212 3.66687C7.01212 3.76942 6.98444 3.85332 6.95062 3.85332C6.91679 3.85332 6.88912 3.9532 6.88912 4.07526C6.88912 4.33722 6.77411 4.47482 6.55523 4.47482C6.46827 4.47482 6.39711 4.50279 6.39711 4.53697C6.39711 4.57116 6.28641 4.59912 6.15111 4.59912C6.01581 4.59912 5.9051 4.62709 5.9051 4.66127C5.9051 4.69546 5.82208 4.72342 5.7206 4.72342C5.61912 4.72342 5.5361 4.75139 5.5361 4.78557C5.5361 4.81976 5.45307 4.84772 5.3516 4.84772C5.25012 4.84772 5.16709 4.87569 5.16709 4.90987C5.16709 4.94406 5.13942 4.97203 5.10559 4.97203C5.07177 4.97203 5.04409 4.88812 5.04409 4.78557C5.04409 4.68303 5.07177 4.59912 5.10559 4.59912C5.13942 4.59912 5.16709 4.51522 5.16709 4.41267C5.16709 4.31012 5.19477 4.22622 5.22859 4.22622C5.26242 4.22622 5.2901 4.14232 5.2901 4.03977C5.2901 3.93722 5.31777 3.85332 5.3516 3.85332C5.38542 3.85332 5.4131 3.79738 5.4131 3.72902C5.4131 3.66065 5.44077 3.60472 5.4746 3.60472C5.50842 3.60472 5.5361 3.54878 5.5361 3.48042C5.5361 3.41205 5.56377 3.35612 5.5976 3.35612C5.63142 3.35612 5.6591 3.30018 5.6591 3.23182C5.6591 3.16345 5.68678 3.10752 5.7206 3.10752C5.75443 3.10752 5.7821 3.05158 5.7821 2.98322C5.7821 2.91485 5.80978 2.85891 5.8436 2.85891C5.87743 2.85891 5.9051 2.80913 5.9051 2.74835C5.9051 2.6875 5.96045 2.59745 6.02811 2.54816C6.09576 2.49888 6.15111 2.41497 6.15111 2.36171C6.15111 2.30845 6.20646 2.22455 6.27411 2.17526C6.34176 2.12598 6.39711 2.04928 6.39711 2.00484C6.39711 1.96035 6.54871 1.77072 6.73401 1.58347C6.91931 1.39621 7.10695 1.24301 7.15099 1.24301C7.19496 1.24301 7.27085 1.18707 7.31962 1.11871C7.36839 1.05034 7.45751 0.994405 7.51771 0.994405C7.57786 0.994405 7.62713 0.966437 7.62713 0.932255C7.62713 0.898072 7.68248 0.870104 7.75013 0.870104C7.81778 0.870104 7.87313 0.842137 7.87313 0.807954C7.87313 0.771721 8.07811 0.745804 8.36514 0.745804C8.77141 0.745804 8.85714 0.762834 8.85714 0.843443ZM10.5177 1.49161C10.5664 1.55997 10.6437 1.61591 10.6894 1.61591C10.7964 1.61591 10.9482 1.76923 10.9482 1.87744C10.9482 1.92361 11.0035 2.00168 11.0712 2.05096C11.1388 2.10025 11.1942 2.1903 11.1942 2.25115C11.1942 2.31193 11.2218 2.36171 11.2557 2.36171C11.2895 2.36171 11.3172 2.41765 11.3172 2.48601C11.3172 2.55438 11.3448 2.61031 11.3787 2.61031C11.4125 2.61031 11.4402 2.69422 11.4402 2.79676C11.4402 2.94176 11.4129 2.98322 11.3172 2.98322C11.2495 2.98322 11.1942 3.01118 11.1942 3.04537C11.1942 3.07955 11.0835 3.10752 10.9482 3.10752C10.8129 3.10752 10.7022 3.13548 10.7022 3.16967C10.7022 3.20385 10.6468 3.23182 10.5792 3.23182C10.4664 3.23182 10.4562 3.19036 10.4562 2.73461C10.4562 2.44456 10.4305 2.23741 10.3947 2.23741C10.3608 2.23741 10.3332 2.12554 10.3332 1.98881C10.3332 1.85208 10.3055 1.74021 10.2717 1.74021C10.2378 1.74021 10.2102 1.65631 10.2102 1.55376C10.2102 1.33076 10.3787 1.2967 10.5177 1.49161ZM9.50727 1.58042C9.55561 1.62921 9.59515 1.76905 9.59515 1.89117C9.59515 2.01323 9.62283 2.11311 9.65665 2.11311C9.6938 2.11311 9.71815 2.37352 9.71815 2.7701C9.71815 3.4867 9.67092 3.60472 9.38426 3.60472C9.2973 3.60472 9.22615 3.63269 9.22615 3.66687C9.22615 3.70105 9.11544 3.72902 8.98014 3.72902C8.84484 3.72902 8.73414 3.75699 8.73414 3.79117C8.73414 3.82535 8.65111 3.85332 8.54964 3.85332C8.44816 3.85332 8.36514 3.88129 8.36514 3.91547C8.36514 3.94965 8.28211 3.97762 8.18063 3.97762C8.07916 3.97762 7.99613 4.00559 7.99613 4.03977C7.99613 4.07395 7.9131 4.10192 7.81163 4.10192C7.66815 4.10192 7.62713 4.07433 7.62713 3.97762C7.62713 3.90926 7.6548 3.85332 7.68863 3.85332C7.72245 3.85332 7.75013 3.76942 7.75013 3.66687C7.75013 3.56432 7.7778 3.48042 7.81163 3.48042C7.84545 3.48042 7.87313 3.42448 7.87313 3.35612C7.87313 3.28775 7.9008 3.23182 7.93463 3.23182C7.96845 3.23182 7.99613 3.17588 7.99613 3.10752C7.99613 3.03915 8.02381 2.98322 8.05763 2.98322C8.09146 2.98322 8.11913 2.92728 8.11913 2.85891C8.11913 2.79055 8.14681 2.73461 8.18063 2.73461C8.21446 2.73461 8.24213 2.68993 8.24213 2.63524C8.24213 2.58061 8.32516 2.45749 8.42664 2.36171C8.52811 2.26594 8.61114 2.15556 8.61114 2.11641C8.61114 2.01846 8.89466 1.74021 8.99453 1.74021C9.03931 1.74021 9.11588 1.68427 9.16465 1.61591C9.26914 1.46942 9.38556 1.45736 9.50727 1.58042ZM13.4082 12.1193V21.504H13.5927C13.6942 21.504 13.7772 21.476 13.7772 21.4419C13.7772 21.4077 13.8879 21.3797 14.0232 21.3797C14.1585 21.3797 14.2692 21.3517 14.2692 21.3176C14.2692 21.2834 14.3799 21.2554 14.5152 21.2554C14.6505 21.2554 14.7612 21.2274 14.7612 21.1933C14.7612 21.1591 14.8719 21.1311 15.0072 21.1311C15.1425 21.1311 15.2532 21.1031 15.2532 21.069C15.2532 21.0348 15.3639 21.0068 15.4992 21.0068C15.6345 21.0068 15.7452 20.9788 15.7452 20.9447C15.7452 20.9105 15.8559 20.8825 15.9912 20.8825C16.1265 20.8825 16.2372 20.8545 16.2372 20.8204C16.2372 20.7862 16.3479 20.7582 16.4832 20.7582C16.6185 20.7582 16.7292 20.7302 16.7292 20.6961C16.7292 20.6619 16.8399 20.6339 16.9752 20.6339C17.1105 20.6339 17.2212 20.6059 17.2212 20.5718C17.2212 20.5376 17.3319 20.5096 17.4672 20.5096C17.6026 20.5096 17.7133 20.4816 17.7133 20.4475C17.7133 20.4133 17.824 20.3853 17.9593 20.3853C18.0946 20.3853 18.2053 20.3573 18.2053 20.3232C18.2053 20.289 18.3041 20.261 18.4249 20.261C18.5457 20.261 18.6841 20.221 18.7324 20.1722C18.8332 20.0704 18.8501 19.8881 18.7588 19.8881C18.7246 19.8881 18.6973 19.7223 18.6973 19.5152C18.6973 19.3081 18.67 19.1423 18.6358 19.1423C18.6006 19.1423 18.5743 18.9558 18.5743 18.7072C18.5743 18.4586 18.5479 18.2722 18.5128 18.2722C18.4776 18.2722 18.4513 18.0857 18.4513 17.8371C18.4513 17.5885 18.4249 17.4021 18.3898 17.4021C18.3546 17.4021 18.3283 17.2156 18.3283 16.967C18.3283 16.7184 18.3019 16.532 18.2668 16.532C18.2326 16.532 18.2053 16.3662 18.2053 16.1591C18.2053 15.9519 18.178 15.7862 18.1438 15.7862C18.1086 15.7862 18.0823 15.5997 18.0823 15.3511C18.0823 15.1025 18.0559 14.9161 18.0208 14.9161C17.9856 14.9161 17.9593 14.7296 17.9593 14.481C17.9593 14.2324 17.9329 14.046 17.8978 14.046C17.8626 14.046 17.8363 13.8595 17.8363 13.6109C17.8363 13.3623 17.8099 13.1759 17.7748 13.1759C17.7406 13.1759 17.7133 13.0101 17.7133 12.803C17.7133 12.5958 17.6859 12.4301 17.6518 12.4301C17.6166 12.4301 17.5903 12.2436 17.5903 11.995C17.5903 11.7464 17.5639 11.56 17.5287 11.56C17.4936 11.56 17.4672 11.3735 17.4672 11.1249C17.4672 10.8763 17.4409 10.6899 17.4057 10.6899C17.3706 10.6899 17.3442 10.5034 17.3442 10.2548C17.3442 10.0062 17.3179 9.81975 17.2827 9.81975C17.2486 9.81975 17.2212 9.65399 17.2212 9.44685C17.2212 9.2397 17.1939 9.07395 17.1597 9.07395C17.1246 9.07395 17.0982 8.8875 17.0982 8.63889C17.0982 8.39029 17.0719 8.20384 17.0367 8.20384C17.0016 8.20384 16.9752 8.01739 16.9752 7.76879C16.9752 7.52019 16.9489 7.33374 16.9137 7.33374C16.8786 7.33374 16.8522 7.14729 16.8522 6.89869C16.8522 6.65008 16.8259 6.46363 16.7907 6.46363C16.7556 6.46363 16.7292 6.27718 16.7292 6.02858C16.7292 5.77998 16.7029 5.59353 16.6677 5.59353C16.6326 5.59353 16.6062 5.40708 16.6062 5.15848C16.6062 4.90987 16.5799 4.72342 16.5447 4.72342C16.5109 4.72342 16.4832 4.59558 16.4832 4.43933C16.4832 4.00167 16.4321 3.97762 15.5015 3.97762H14.6954L14.0847 3.35612C13.7488 3.01429 13.4592 2.73461 13.4411 2.73461C13.423 2.73461 13.4082 6.95773 13.4082 12.1193ZM66.9139 4.16407C66.9139 4.19825 66.8032 4.22622 66.6679 4.22622C66.5326 4.22622 66.4219 4.25419 66.4219 4.28837C66.4219 4.32255 66.3388 4.35052 66.2374 4.35052C66.1359 4.35052 66.0529 4.37849 66.0529 4.41267C66.0529 4.44686 65.9975 4.47482 65.9299 4.47482C65.8622 4.47482 65.8069 4.50279 65.8069 4.53697C65.8069 4.57116 65.7626 4.59912 65.7085 4.59912C65.6545 4.59912 65.5326 4.68303 65.4379 4.78557C65.3431 4.88812 65.2342 4.97203 65.1958 4.97203C65.0993 4.97203 64.6998 5.3847 64.6998 5.48452C64.6998 5.52939 64.6445 5.60639 64.5768 5.65568C64.5092 5.70496 64.4538 5.78887 64.4538 5.84213C64.4538 5.89539 64.3985 5.9793 64.3308 6.02858C64.2632 6.07787 64.2078 6.16792 64.2078 6.22877C64.2078 6.28955 64.1802 6.33933 64.1463 6.33933C64.1125 6.33933 64.0848 6.42324 64.0848 6.52578C64.0848 6.62833 64.0572 6.71223 64.0233 6.71223C63.9895 6.71223 63.9618 6.79614 63.9618 6.89869C63.9618 7.00123 63.9342 7.08514 63.9003 7.08514C63.8665 7.08514 63.8388 7.16904 63.8388 7.27159C63.8388 7.37414 63.8112 7.45804 63.7773 7.45804C63.7435 7.45804 63.7158 7.56991 63.7158 7.70664C63.7158 7.84337 63.6882 7.95524 63.6543 7.95524C63.6205 7.95524 63.5928 8.06711 63.5928 8.20384V8.45244H62.9778H62.3628V8.63889C62.3628 8.74144 62.3351 8.82535 62.3013 8.82535C62.2675 8.82535 62.2398 8.96518 62.2398 9.1361C62.2398 9.30701 62.2121 9.44685 62.1783 9.44685C62.1441 9.44685 62.1168 9.6126 62.1168 9.81975C62.1168 10.0269 62.0895 10.1927 62.0553 10.1927C62.0215 10.1927 61.9938 10.2486 61.9938 10.317C61.9938 10.433 62.0348 10.4413 62.6088 10.4413C63.1828 10.4413 63.2238 10.4495 63.2238 10.5656C63.2238 10.6339 63.1962 10.6899 63.1623 10.6899C63.1281 10.6899 63.1008 10.8556 63.1008 11.0628C63.1008 11.2699 63.0735 11.4357 63.0393 11.4357C63.0055 11.4357 62.9778 11.5755 62.9778 11.7464C62.9778 11.9173 62.9501 12.0572 62.9163 12.0572C62.8821 12.0572 62.8548 12.2229 62.8548 12.4301C62.8548 12.6372 62.8275 12.803 62.7933 12.803C62.7595 12.803 62.7318 12.9428 62.7318 13.1137C62.7318 13.2846 62.7041 13.4245 62.6703 13.4245C62.6365 13.4245 62.6088 13.5643 62.6088 13.7352C62.6088 13.9061 62.5811 14.046 62.5473 14.046C62.5131 14.046 62.4858 14.2117 62.4858 14.4189C62.4858 14.626 62.4585 14.7918 62.4243 14.7918C62.3905 14.7918 62.3628 14.9316 62.3628 15.1025C62.3628 15.2734 62.3351 15.4133 62.3013 15.4133C62.2675 15.4133 62.2398 15.5531 62.2398 15.724C62.2398 15.8949 62.2121 16.0348 62.1783 16.0348C62.1441 16.0348 62.1168 16.2005 62.1168 16.4077C62.1168 16.6148 62.0895 16.7806 62.0553 16.7806C62.0215 16.7806 61.9938 16.9204 61.9938 17.0913C61.9938 17.2623 61.9661 17.4021 61.9323 17.4021C61.8985 17.4021 61.8708 17.514 61.8708 17.6507V17.8993H63.1623C64.4128 17.8993 64.4538 17.8954 64.4538 17.775C64.4538 17.7066 64.4815 17.6507 64.5153 17.6507C64.5492 17.6507 64.5768 17.5109 64.5768 17.3399C64.5768 17.169 64.6045 17.0292 64.6383 17.0292C64.6722 17.0292 64.6998 16.8893 64.6998 16.7184C64.6998 16.5475 64.7275 16.4077 64.7613 16.4077C64.7955 16.4077 64.8228 16.2419 64.8228 16.0348C64.8228 15.8276 64.8502 15.6619 64.8843 15.6619C64.9182 15.6619 64.9458 15.522 64.9458 15.3511C64.9458 15.1802 64.9735 15.0404 65.0073 15.0404C65.0415 15.0404 65.0688 14.8746 65.0688 14.6675C65.0688 14.4603 65.0962 14.2946 65.1303 14.2946C65.1642 14.2946 65.1918 14.1547 65.1918 13.9838C65.1918 13.8129 65.2195 13.6731 65.2533 13.6731C65.2872 13.6731 65.3148 13.5332 65.3148 13.3623C65.3148 13.1914 65.3425 13.0516 65.3764 13.0516C65.4105 13.0516 65.4379 12.8858 65.4379 12.6787C65.4379 12.4715 65.4652 12.3058 65.4994 12.3058C65.5332 12.3058 65.5609 12.1659 65.5609 11.995C65.5609 11.8241 65.5885 11.6843 65.6224 11.6843C65.6562 11.6843 65.6839 11.5444 65.6839 11.3735C65.6839 11.2026 65.7115 11.0628 65.7454 11.0628C65.7792 11.0628 65.8069 10.9229 65.8069 10.752V10.4413H66.7294H67.6519V10.2548C67.6519 10.1523 67.6796 10.0684 67.7134 10.0684C67.7472 10.0684 67.7749 9.92851 67.7749 9.7576C67.7749 9.58669 67.8026 9.44685 67.8364 9.44685C67.8706 9.44685 67.8979 9.28109 67.8979 9.07395C67.8979 8.8668 67.9252 8.70104 67.9594 8.70104C67.9932 8.70104 68.0209 8.64511 68.0209 8.57674C68.0209 8.45797 67.9799 8.45244 67.0984 8.45244C66.2169 8.45244 66.1759 8.44691 66.1759 8.32814C66.1759 8.25978 66.2035 8.20384 66.2374 8.20384C66.2712 8.20384 66.2989 8.064 66.2989 7.89309C66.2989 7.72218 66.3265 7.58234 66.3604 7.58234C66.3942 7.58234 66.4219 7.5264 66.4219 7.45804C66.4219 7.38967 66.4495 7.33374 66.4834 7.33374C66.5172 7.33374 66.5449 7.2778 66.5449 7.20944C66.5449 7.14107 66.5725 7.08514 66.6064 7.08514C66.6402 7.08514 66.6679 7.04225 66.6679 6.98986C66.6679 6.86612 67.0661 6.46363 67.1886 6.46363C67.2404 6.46363 67.2829 6.43567 67.2829 6.40148C67.2829 6.3673 67.3659 6.33933 67.4674 6.33933C67.5689 6.33933 67.6519 6.31136 67.6519 6.27718C67.6519 6.243 67.7349 6.21503 67.8364 6.21503C67.9379 6.21503 68.0209 6.243 68.0209 6.27718C68.0209 6.37395 68.5713 6.35139 68.671 6.25052C68.7194 6.20173 68.7589 6.06189 68.7589 5.93977C68.7589 5.81771 68.7866 5.71783 68.8204 5.71783C68.8542 5.71783 68.8819 5.60596 68.8819 5.46923C68.8819 5.3325 68.9096 5.22063 68.9434 5.22063C68.9772 5.22063 69.0049 5.10876 69.0049 4.97203C69.0049 4.83529 69.0326 4.72342 69.0664 4.72342C69.1002 4.72342 69.1279 4.61155 69.1279 4.47482V4.22622H68.8819C68.7466 4.22622 68.6359 4.19825 68.6359 4.16407C68.6359 4.1256 68.3079 4.10192 67.7749 4.10192C67.2419 4.10192 66.9139 4.1256 66.9139 4.16407ZM31.3664 4.84772C31.3664 5.05487 31.3391 5.22063 31.3049 5.22063C31.2711 5.22063 31.2434 5.36047 31.2434 5.53138C31.2434 5.70229 31.2157 5.84213 31.1819 5.84213C31.1481 5.84213 31.1204 5.98197 31.1204 6.15288C31.1204 6.32379 31.0927 6.46363 31.0589 6.46363C31.0251 6.46363 30.9974 6.60347 30.9974 6.77438C30.9974 6.9453 30.9697 7.08514 30.9359 7.08514C30.9021 7.08514 30.8744 7.22497 30.8744 7.39589C30.8744 7.5668 30.8467 7.70664 30.8129 7.70664C30.7787 7.70664 30.7514 7.87239 30.7514 8.07954C30.7514 8.28669 30.7241 8.45244 30.6899 8.45244C30.6561 8.45244 30.6284 8.59228 30.6284 8.76319C30.6284 8.93411 30.6007 9.07395 30.5669 9.07395C30.5331 9.07395 30.5054 9.21378 30.5054 9.3847C30.5054 9.55561 30.4777 9.69545 30.4439 9.69545C30.4101 9.69545 30.3824 9.83529 30.3824 10.0062C30.3824 10.1771 30.3547 10.317 30.3209 10.317C30.2867 10.317 30.2594 10.4827 30.2594 10.6899C30.2594 10.897 30.2321 11.0628 30.1979 11.0628C30.1641 11.0628 30.1364 11.2026 30.1364 11.3735C30.1364 11.5444 30.1087 11.6843 30.0749 11.6843C30.0411 11.6843 30.0134 11.8241 30.0134 11.995C30.0134 12.1659 29.9857 12.3058 29.9519 12.3058C29.9181 12.3058 29.8904 12.4456 29.8904 12.6165C29.8904 12.7874 29.8627 12.9273 29.8289 12.9273C29.7951 12.9273 29.7674 13.0671 29.7674 13.238C29.7674 13.4089 29.7397 13.5488 29.7059 13.5488C29.6717 13.5488 29.6444 13.7145 29.6444 13.9217C29.6444 14.1288 29.6171 14.2946 29.5829 14.2946C29.5491 14.2946 29.5214 14.4344 29.5214 14.6053C29.5214 14.7762 29.4937 14.9161 29.4599 14.9161C29.4261 14.9161 29.3984 15.0559 29.3984 15.2268C29.3984 15.3977 29.3707 15.5376 29.3369 15.5376C29.3031 15.5376 29.2754 15.6774 29.2754 15.8483C29.2754 16.0192 29.2477 16.1591 29.2139 16.1591C29.1797 16.1591 29.1524 16.3248 29.1524 16.532C29.1524 16.7391 29.1251 16.9049 29.0909 16.9049C29.0571 16.9049 29.0294 17.0447 29.0294 17.2156C29.0294 17.3866 29.0017 17.5264 28.9679 17.5264C28.9341 17.5264 28.9064 17.6103 28.9064 17.7128V17.8993H30.1715C31.6357 17.8993 31.6124 17.9077 31.6124 17.3754C31.6124 17.185 31.6401 17.0292 31.6739 17.0292C31.7078 17.0292 31.7354 16.8893 31.7354 16.7184C31.7354 16.5475 31.7631 16.4077 31.7969 16.4077C31.8308 16.4077 31.8584 16.2678 31.8584 16.0969C31.8584 15.926 31.8861 15.7862 31.9199 15.7862C31.9541 15.7862 31.9814 15.6204 31.9814 15.4133C31.9814 15.2061 32.0087 15.0404 32.0429 15.0404C32.0768 15.0404 32.1044 14.9005 32.1044 14.7296C32.1044 14.5587 32.1321 14.4189 32.1659 14.4189C32.1998 14.4189 32.2274 14.279 32.2274 14.1081C32.2274 13.9372 32.2551 13.7974 32.2889 13.7974C32.3231 13.7974 32.3504 13.6316 32.3504 13.4245C32.3504 13.2173 32.3777 13.0516 32.4119 13.0516C32.4458 13.0516 32.4734 12.9397 32.4734 12.803C32.4734 12.6662 32.5011 12.5544 32.5349 12.5544C32.5688 12.5544 32.5964 12.4705 32.5964 12.3679C32.5964 12.2654 32.6241 12.1815 32.6579 12.1815C32.6918 12.1815 32.7194 12.1255 32.7194 12.0572C32.7194 11.9888 32.7471 11.9329 32.7809 11.9329C32.8148 11.9329 32.8424 11.8769 32.8424 11.8086C32.8424 11.7402 32.8701 11.6843 32.9039 11.6843C32.9378 11.6843 32.9654 11.6283 32.9654 11.56C32.9654 11.4916 32.9931 11.4357 33.0269 11.4357C33.0608 11.4357 33.0884 11.3931 33.0884 11.3411C33.0884 11.218 33.7341 10.5656 33.8559 10.5656C33.9073 10.5656 33.9495 10.5376 33.9495 10.5034C33.9495 10.4692 34.0048 10.4413 34.0725 10.4413C34.1401 10.4413 34.1955 10.4133 34.1955 10.3791C34.1955 10.3449 34.3062 10.317 34.4415 10.317C34.5768 10.317 34.6875 10.3449 34.6875 10.3791C34.6875 10.4133 34.7302 10.4413 34.7825 10.4413C34.9605 10.4413 35.1795 10.7311 35.1795 10.9667C35.1795 11.0879 35.2071 11.1871 35.241 11.1871C35.2748 11.1871 35.3025 11.271 35.3025 11.3735C35.3025 11.4761 35.2748 11.56 35.241 11.56C35.2045 11.56 35.1795 11.7879 35.1795 12.1193C35.1795 12.4508 35.1544 12.6787 35.118 12.6787C35.0841 12.6787 35.0565 12.8185 35.0565 12.9894C35.0565 13.1603 35.0288 13.3002 34.995 13.3002C34.9608 13.3002 34.9335 13.4659 34.9335 13.6731C34.9335 13.8802 34.9062 14.046 34.872 14.046C34.8381 14.046 34.8105 14.1858 34.8105 14.3567C34.8105 14.5276 34.7828 14.6675 34.749 14.6675C34.7148 14.6675 34.6875 14.8332 34.6875 15.0404C34.6875 15.2475 34.6602 15.4133 34.626 15.4133C34.5921 15.4133 34.5645 15.5531 34.5645 15.724C34.5645 15.8949 34.5368 16.0348 34.503 16.0348C34.4691 16.0348 34.4415 16.1746 34.4415 16.3455C34.4415 16.5164 34.4138 16.6563 34.38 16.6563C34.3458 16.6563 34.3185 16.822 34.3185 17.0292C34.3185 17.2363 34.2912 17.4021 34.257 17.4021C34.2231 17.4021 34.1955 17.514 34.1955 17.6507V17.8993H35.487C36.7375 17.8993 36.7785 17.8954 36.7785 17.775C36.7785 17.7066 36.8062 17.6507 36.84 17.6507C36.8742 17.6507 36.9015 17.4849 36.9015 17.2778C36.9015 17.0706 36.9288 16.9049 36.963 16.9049C36.9968 16.9049 37.0245 16.765 37.0245 16.5941C37.0245 16.4232 37.0522 16.2834 37.086 16.2834C37.1198 16.2834 37.1475 16.1435 37.1475 15.9726C37.1475 15.8017 37.1752 15.6619 37.209 15.6619C37.2432 15.6619 37.2705 15.4961 37.2705 15.289C37.2705 15.0818 37.2978 14.9161 37.332 14.9161C37.3658 14.9161 37.3935 14.7762 37.3935 14.6053C37.3935 14.4344 37.4212 14.2946 37.455 14.2946C37.4888 14.2946 37.5165 14.1547 37.5165 13.9838C37.5165 13.8129 37.5442 13.6731 37.578 13.6731C37.6122 13.6731 37.6395 13.5073 37.6395 13.3002C37.6395 13.093 37.6668 12.9273 37.701 12.9273C37.7348 12.9273 37.7625 12.7874 37.7625 12.6165C37.7625 12.4456 37.7902 12.3058 37.824 12.3058C37.8582 12.3058 37.8855 12.14 37.8855 11.9329C37.8855 11.7257 37.9128 11.56 37.947 11.56C37.9848 11.56 38.0085 11.2492 38.0085 10.752C38.0085 10.2548 37.9848 9.94405 37.947 9.94405C37.9132 9.94405 37.8855 9.83218 37.8855 9.69545C37.8855 9.55872 37.8578 9.44685 37.824 9.44685C37.7902 9.44685 37.7625 9.39707 37.7625 9.33628C37.7625 9.27544 37.7072 9.18538 37.6395 9.1361C37.5719 9.08681 37.5165 9.00943 37.5165 8.96419C37.5165 8.85077 37.2358 8.57674 37.1195 8.57674C37.0672 8.57674 37.0245 8.54878 37.0245 8.51459C37.0245 8.48041 36.9691 8.45244 36.9015 8.45244C36.8338 8.45244 36.7785 8.42447 36.7785 8.39029C36.7785 8.35611 36.6955 8.32814 36.594 8.32814C36.4925 8.32814 36.4095 8.30017 36.4095 8.26599C36.4095 8.22914 36.184 8.20384 35.856 8.20384C35.528 8.20384 35.3025 8.22914 35.3025 8.26599C35.3025 8.30017 35.1918 8.32814 35.0565 8.32814C34.9212 8.32814 34.8105 8.35611 34.8105 8.39029C34.8105 8.42447 34.7274 8.45244 34.626 8.45244C34.5245 8.45244 34.4415 8.48041 34.4415 8.51459C34.4415 8.54878 34.3922 8.57674 34.3321 8.57674C34.2718 8.57674 34.1827 8.63268 34.134 8.70104C34.0852 8.76941 34.0084 8.82535 33.9632 8.82535C33.9181 8.82535 33.7182 8.99315 33.519 9.19825C33.3198 9.40334 33.1414 9.57115 33.1226 9.57115C33.1038 9.57115 33.0884 9.48725 33.0884 9.3847C33.0884 9.28215 33.1161 9.19825 33.1499 9.19825C33.1838 9.19825 33.2114 9.05841 33.2114 8.8875C33.2114 8.71658 33.2391 8.57674 33.2729 8.57674C33.3068 8.57674 33.3344 8.43691 33.3344 8.26599C33.3344 8.09508 33.3621 7.95524 33.396 7.95524C33.4298 7.95524 33.4575 7.8154 33.4575 7.64449C33.4575 7.47358 33.4851 7.33374 33.519 7.33374C33.5528 7.33374 33.5805 7.1939 33.5805 7.02299C33.5805 6.85207 33.6081 6.71223 33.642 6.71223C33.6761 6.71223 33.7035 6.54648 33.7035 6.33933C33.7035 6.13219 33.7308 5.96643 33.765 5.96643C33.7988 5.96643 33.8265 5.82659 33.8265 5.65568C33.8265 5.48477 33.8541 5.34493 33.888 5.34493C33.9218 5.34493 33.9495 5.20509 33.9495 5.03418C33.9495 4.86326 33.9771 4.72342 34.011 4.72342C34.0448 4.72342 34.0725 4.66749 34.0725 4.59912C34.0725 4.47861 34.0314 4.47482 32.7194 4.47482H31.3664V4.84772ZM60.1488 4.53697C60.1488 4.57116 60.0934 4.59912 60.0258 4.59912C59.9581 4.59912 59.9028 4.62709 59.9028 4.66127C59.9028 4.69546 59.86 4.72342 59.8078 4.72342C59.6847 4.72342 59.4108 5.00024 59.4108 5.1246C59.4108 5.17743 59.3831 5.22063 59.3493 5.22063C59.3155 5.22063 59.2878 5.27656 59.2878 5.34493C59.2878 5.41329 59.2601 5.46923 59.2263 5.46923C59.1925 5.46923 59.1648 5.57874 59.1648 5.71267C59.1648 5.8466 59.1302 5.9724 59.0879 5.99235C59.0264 6.02131 59.0264 6.03585 59.0879 6.06482C59.1341 6.08663 59.1648 6.22299 59.1648 6.40664C59.1648 6.57476 59.1925 6.71223 59.2263 6.71223C59.2601 6.71223 59.2878 6.75512 59.2878 6.80751C59.2878 6.93125 59.6861 7.33374 59.8085 7.33374C59.8603 7.33374 59.9028 7.36171 59.9028 7.39589C59.9028 7.43138 60.0873 7.45804 60.3333 7.45804C60.5793 7.45804 60.7638 7.43138 60.7638 7.39589C60.7638 7.36171 60.8407 7.33374 60.9347 7.33374C61.0351 7.33374 61.1422 7.2824 61.1943 7.20944C61.2431 7.14107 61.3322 7.08514 61.3924 7.08514C61.4563 7.08514 61.5018 7.03915 61.5018 6.97457C61.5018 6.91373 61.5572 6.82367 61.6248 6.77438C61.6925 6.7251 61.7478 6.63504 61.7478 6.5742C61.7478 6.51341 61.7755 6.46363 61.8093 6.46363C61.8462 6.46363 61.8708 6.21503 61.8708 5.84213C61.8708 5.46923 61.8462 5.22063 61.8093 5.22063C61.7755 5.22063 61.7478 5.17774 61.7478 5.12535C61.7478 4.96873 61.3388 4.59912 61.1656 4.59912C61.0799 4.59912 61.0098 4.57116 61.0098 4.53697C61.0098 4.50149 60.8253 4.47482 60.5793 4.47482C60.3333 4.47482 60.1488 4.50149 60.1488 4.53697ZM9.10314 6.77438C9.10314 6.80857 9.22965 6.83653 9.38426 6.83653C9.54595 6.83653 9.70278 6.87426 9.75327 6.92535C9.85315 7.02622 9.87301 7.33374 9.77965 7.33374C9.74583 7.33374 9.71815 7.44561 9.71815 7.58234C9.71815 7.71907 9.69048 7.83094 9.65665 7.83094C9.62283 7.83094 9.59515 7.94281 9.59515 8.07954C9.59515 8.21627 9.56748 8.32814 9.53365 8.32814C9.49982 8.32814 9.47215 8.44001 9.47215 8.57674C9.47215 8.71347 9.44447 8.82535 9.41065 8.82535C9.37682 8.82535 9.34915 8.92522 9.34915 9.04728C9.34915 9.27531 9.16833 9.55132 9.11833 9.39968C9.10388 9.3558 8.98912 9.32255 8.85204 9.32255C8.7195 9.32255 8.61114 9.29458 8.61114 9.2604C8.61114 9.22242 8.32411 9.19825 7.87313 9.19825C7.42214 9.19825 7.13512 9.22242 7.13512 9.2604C7.13512 9.29458 7.07977 9.32255 7.01212 9.32255C6.94447 9.32255 6.88912 9.35052 6.88912 9.3847C6.88912 9.41888 6.84563 9.44685 6.7925 9.44685C6.66821 9.44685 6.52011 9.59651 6.52011 9.72211C6.52011 9.77581 6.49244 9.81975 6.45861 9.81975C6.42442 9.81975 6.39711 9.98551 6.39711 10.1927C6.39711 10.3998 6.42442 10.5656 6.45861 10.5656C6.49244 10.5656 6.52011 10.6095 6.52011 10.6632C6.52011 10.7779 6.66464 10.9385 6.76777 10.9385C6.80738 10.9385 6.91734 11.0224 7.01212 11.1249C7.10689 11.2275 7.22872 11.3114 7.28278 11.3114C7.3369 11.3114 7.38112 11.3393 7.38112 11.3735C7.38112 11.4077 7.43038 11.4357 7.49053 11.4357C7.55074 11.4357 7.63986 11.4916 7.68863 11.56C7.7374 11.6283 7.81483 11.6843 7.86077 11.6843C7.90671 11.6843 8.05062 11.7961 8.18063 11.9329C8.31065 12.0696 8.44884 12.1815 8.48771 12.1815C8.57959 12.1815 8.73414 12.3385 8.73414 12.4317C8.73414 12.4718 8.81717 12.5829 8.91864 12.6787C9.02012 12.7744 9.10314 12.8976 9.10314 12.9522C9.10314 13.0069 9.13082 13.0516 9.16465 13.0516C9.19847 13.0516 9.22615 13.1075 9.22615 13.1759C9.22615 13.2442 9.25382 13.3002 9.28765 13.3002C9.32147 13.3002 9.34915 13.3841 9.34915 13.4866C9.34915 13.5892 9.37682 13.6731 9.41065 13.6731C9.44872 13.6731 9.47215 14.0045 9.47215 14.5432C9.47215 15.0818 9.44872 15.4133 9.41065 15.4133C9.37682 15.4133 9.34915 15.5251 9.34915 15.6619C9.34915 15.7986 9.32147 15.9105 9.28765 15.9105C9.25382 15.9105 9.22615 15.9664 9.22615 16.0348C9.22615 16.1031 9.19847 16.1591 9.16465 16.1591C9.13082 16.1591 9.10314 16.215 9.10314 16.2834C9.10314 16.3517 9.07547 16.4077 9.04164 16.4077C9.00782 16.4077 8.98014 16.4501 8.98014 16.5021C8.98014 16.625 8.21114 17.4021 8.08955 17.4021C8.03814 17.4021 7.99613 17.4301 7.99613 17.4642C7.99613 17.4984 7.94078 17.5264 7.87313 17.5264C7.80548 17.5264 7.75013 17.5544 7.75013 17.5885C7.75013 17.6227 7.6671 17.6507 7.56562 17.6507C7.46415 17.6507 7.38112 17.6787 7.38112 17.7128C7.38112 17.747 7.24275 17.775 7.07362 17.775C6.90449 17.775 6.76611 17.803 6.76611 17.8371C6.76611 17.8713 6.62774 17.8993 6.45861 17.8993C6.28948 17.8993 6.15111 17.8713 6.15111 17.8371C6.15111 17.8009 5.94612 17.775 5.6591 17.775C5.37208 17.775 5.16709 17.7491 5.16709 17.7128C5.16709 17.6787 5.08407 17.6507 4.98259 17.6507C4.88112 17.6507 4.79809 17.6227 4.79809 17.5885C4.79809 17.5544 4.74274 17.5264 4.67509 17.5264C4.60744 17.5264 4.55209 17.4984 4.55209 17.4642C4.55209 17.4301 4.49674 17.4021 4.42908 17.4021C4.36143 17.4021 4.30608 17.3741 4.30608 17.3399C4.30608 17.3058 4.25073 17.2778 4.18308 17.2778C4.11543 17.2778 4.06008 17.2498 4.06008 17.2156C4.06008 17.1815 4.01764 17.1535 3.9658 17.1535C3.81082 17.1535 3.44507 16.7402 3.44507 16.5651C3.44507 16.4785 3.47275 16.4077 3.50657 16.4077C3.5404 16.4077 3.56807 16.2958 3.56807 16.1591C3.56807 16.0224 3.59575 15.9105 3.62958 15.9105C3.6634 15.9105 3.69108 15.7986 3.69108 15.6619C3.69108 15.5251 3.71875 15.4133 3.75258 15.4133C3.7864 15.4133 3.81408 15.3014 3.81408 15.1647C3.81408 14.9575 3.83456 14.9161 3.93708 14.9161C4.00473 14.9161 4.06008 14.944 4.06008 14.9782C4.06008 15.0124 4.10934 15.0404 4.16949 15.0404C4.2297 15.0404 4.31881 15.0963 4.36758 15.1647C4.41635 15.233 4.50547 15.289 4.56568 15.289C4.62583 15.289 4.67509 15.3169 4.67509 15.3511C4.67509 15.3853 4.75811 15.4133 4.85959 15.4133C4.96107 15.4133 5.04409 15.4412 5.04409 15.4754C5.04409 15.5096 5.12712 15.5376 5.22859 15.5376C5.33007 15.5376 5.4131 15.5655 5.4131 15.5997C5.4131 15.6348 5.58801 15.6619 5.81488 15.6619C6.19139 15.6619 6.23014 15.6483 6.42989 15.4464C6.54717 15.3279 6.64311 15.1881 6.64311 15.1357C6.64311 15.0833 6.67079 15.0404 6.70461 15.0404C6.73844 15.0404 6.76611 14.9285 6.76611 14.7918C6.76611 14.655 6.73844 14.5432 6.70461 14.5432C6.67079 14.5432 6.64311 14.4726 6.64311 14.3864C6.64311 14.2794 6.53629 14.1217 6.30621 13.8892C6.12091 13.702 5.93825 13.5488 5.90037 13.5488C5.86248 13.5488 5.75387 13.4649 5.6591 13.3623C5.56433 13.2598 5.45584 13.1759 5.41802 13.1759C5.31402 13.1759 4.55209 12.3839 4.55209 12.2759C4.55209 12.2239 4.52441 12.1815 4.49059 12.1815C4.45676 12.1815 4.42908 12.1255 4.42908 12.0572C4.42908 11.9888 4.40141 11.9329 4.36758 11.9329C4.33376 11.9329 4.30608 11.849 4.30608 11.7464C4.30608 11.6439 4.27841 11.56 4.24458 11.56C4.20651 11.56 4.18308 11.2285 4.18308 10.6899C4.18308 10.1512 4.20651 9.81975 4.24458 9.81975C4.27841 9.81975 4.30608 9.70788 4.30608 9.57115C4.30608 9.43442 4.33376 9.32255 4.36758 9.32255C4.40141 9.32255 4.42908 9.26661 4.42908 9.19825C4.42908 9.12988 4.45676 9.07395 4.49059 9.07395C4.52441 9.07395 4.55209 9.01801 4.55209 8.94965C4.55209 8.88128 4.57976 8.82535 4.61359 8.82535C4.64741 8.82535 4.67509 8.77556 4.67509 8.71478C4.67509 8.65393 4.73044 8.56388 4.79809 8.51459C4.86574 8.46531 4.92109 8.38849 4.92109 8.34387C4.92109 8.23827 5.44717 7.70664 5.55166 7.70664C5.59582 7.70664 5.67183 7.6507 5.7206 7.58234C5.76937 7.51397 5.85849 7.45804 5.91869 7.45804C5.97884 7.45804 6.02811 7.43007 6.02811 7.39589C6.02811 7.36171 6.08346 7.33374 6.15111 7.33374C6.21876 7.33374 6.27411 7.30577 6.27411 7.27159C6.27411 7.2374 6.32946 7.20944 6.39711 7.20944C6.46476 7.20944 6.52011 7.18147 6.52011 7.14729C6.52011 7.1131 6.57546 7.08514 6.64311 7.08514C6.71076 7.08514 6.76611 7.05717 6.76611 7.02299C6.76611 6.9888 6.87682 6.96084 7.01212 6.96084C7.14742 6.96084 7.25812 6.93287 7.25812 6.89869C7.25812 6.86413 7.42214 6.83653 7.62713 6.83653C7.83211 6.83653 7.99613 6.80894 7.99613 6.77438C7.99613 6.73753 8.22165 6.71223 8.54964 6.71223C8.87762 6.71223 9.10314 6.73753 9.10314 6.77438ZM25.9544 8.26599C25.9544 8.30017 25.816 8.32814 25.6469 8.32814C25.4777 8.32814 25.3393 8.35611 25.3393 8.39029C25.3393 8.42447 25.2563 8.45244 25.1548 8.45244C25.0534 8.45244 24.9703 8.48041 24.9703 8.51459C24.9703 8.54878 24.915 8.57674 24.8473 8.57674C24.7797 8.57674 24.7243 8.60471 24.7243 8.63889C24.7243 8.67308 24.669 8.70104 24.6013 8.70104C24.5337 8.70104 24.4783 8.72901 24.4783 8.76319C24.4783 8.79738 24.4291 8.82535 24.3689 8.82535C24.3087 8.82535 24.2196 8.88128 24.1708 8.94965C24.1221 9.01801 24.046 9.07395 24.0019 9.07395C23.8899 9.07395 23.3713 9.60925 23.3713 9.72491C23.3713 9.77705 23.3436 9.81975 23.3098 9.81975C23.276 9.81975 23.2483 9.87569 23.2483 9.94405C23.2483 10.0124 23.2206 10.0684 23.1868 10.0684C23.153 10.0684 23.1253 10.1243 23.1253 10.1927C23.1253 10.261 23.0976 10.317 23.0638 10.317C23.03 10.317 23.0023 10.4009 23.0023 10.5034C23.0023 10.606 22.9746 10.6899 22.9408 10.6899C22.9035 10.6899 22.8793 10.9592 22.8793 11.3735C22.8793 11.7879 22.9035 12.0572 22.9408 12.0572C22.9746 12.0572 23.0023 12.1131 23.0023 12.1815C23.0023 12.2498 23.03 12.3058 23.0638 12.3058C23.0976 12.3058 23.1253 12.3617 23.1253 12.4301C23.1253 12.4984 23.153 12.5544 23.1868 12.5544C23.2206 12.5544 23.2483 12.5969 23.2483 12.649C23.2483 12.7575 23.8871 13.4245 23.9911 13.4245C24.0289 13.4245 24.1376 13.5084 24.2323 13.6109C24.3271 13.7135 24.4489 13.7974 24.503 13.7974C24.5571 13.7974 24.6013 13.8253 24.6013 13.8595C24.6013 13.8937 24.6506 13.9217 24.7107 13.9217C24.771 13.9217 24.8601 13.9776 24.9088 14.046C24.9576 14.1143 25.0342 14.1703 25.079 14.1703C25.1912 14.1703 25.4624 14.454 25.4624 14.5715C25.4624 14.6243 25.49 14.6675 25.5239 14.6675C25.5586 14.6675 25.5854 14.8442 25.5854 15.0735C25.5854 15.454 25.5719 15.4931 25.3721 15.695C25.2093 15.8596 25.1076 15.9105 24.9416 15.9105C24.8221 15.9105 24.7243 15.9384 24.7243 15.9726C24.7243 16.0068 24.6136 16.0348 24.4783 16.0348C24.343 16.0348 24.2323 16.0068 24.2323 15.9726C24.2323 15.9381 24.0683 15.9105 23.8633 15.9105C23.6583 15.9105 23.4943 15.8829 23.4943 15.8483C23.4943 15.8141 23.4113 15.7862 23.3098 15.7862C23.2083 15.7862 23.1253 15.7582 23.1253 15.724C23.1253 15.6898 23.0423 15.6619 22.9408 15.6619C22.8393 15.6619 22.7563 15.6339 22.7563 15.5997C22.7563 15.5655 22.701 15.5376 22.6333 15.5376C22.5657 15.5376 22.5103 15.5096 22.5103 15.4754C22.5103 15.4412 22.4826 15.4133 22.4488 15.4133C22.415 15.4133 22.3873 15.4692 22.3873 15.5376C22.3873 15.6059 22.3596 15.6619 22.3258 15.6619C22.292 15.6619 22.2643 15.7458 22.2643 15.8483C22.2643 15.9509 22.2366 16.0348 22.2028 16.0348C22.169 16.0348 22.1413 16.1187 22.1413 16.2212C22.1413 16.3238 22.1136 16.4077 22.0798 16.4077C22.046 16.4077 22.0183 16.4636 22.0183 16.532C22.0183 16.6003 21.9906 16.6563 21.9568 16.6563C21.923 16.6563 21.8953 16.7402 21.8953 16.8427C21.8953 16.9453 21.8676 17.0292 21.8338 17.0292C21.8 17.0292 21.7723 17.1131 21.7723 17.2156C21.7723 17.3606 21.7996 17.4021 21.8953 17.4021C21.963 17.4021 22.0183 17.4301 22.0183 17.4642C22.0183 17.4984 22.0737 17.5264 22.1413 17.5264C22.209 17.5264 22.2643 17.5544 22.2643 17.5885C22.2643 17.6227 22.3473 17.6507 22.4488 17.6507C22.5503 17.6507 22.6333 17.6787 22.6333 17.7128C22.6333 17.747 22.7163 17.775 22.8178 17.775C22.9193 17.775 23.0023 17.803 23.0023 17.8371C23.0023 17.8726 23.1868 17.8993 23.4328 17.8993C23.6788 17.8993 23.8633 17.926 23.8633 17.9614C23.8633 17.9983 24.0889 18.0236 24.4168 18.0236C24.7448 18.0236 24.9703 17.9983 24.9703 17.9614C24.9703 17.9269 25.1344 17.8993 25.3393 17.8993C25.5443 17.8993 25.7084 17.8717 25.7084 17.8371C25.7084 17.803 25.7914 17.775 25.8929 17.775C25.9943 17.775 26.0774 17.747 26.0774 17.7128C26.0774 17.6787 26.1604 17.6507 26.2619 17.6507C26.3633 17.6507 26.4464 17.6227 26.4464 17.5885C26.4464 17.5544 26.5017 17.5264 26.5694 17.5264C26.637 17.5264 26.6924 17.4984 26.6924 17.4642C26.6924 17.4301 26.7416 17.4021 26.8018 17.4021C26.862 17.4021 26.9511 17.3462 26.9999 17.2778C27.0486 17.2094 27.1247 17.1535 27.1688 17.1535C27.2733 17.1535 27.7994 16.6219 27.7994 16.5163C27.7994 16.4716 27.8547 16.3948 27.9224 16.3455C27.99 16.2962 28.0454 16.2062 28.0454 16.1453C28.0454 16.0846 28.0731 16.0348 28.1069 16.0348C28.1407 16.0348 28.1684 15.9509 28.1684 15.8483C28.1684 15.7458 28.1961 15.6619 28.2299 15.6619C28.2637 15.6619 28.2914 15.522 28.2914 15.3511C28.2914 15.1802 28.3191 15.0404 28.3529 15.0404C28.3867 15.0404 28.4144 14.9005 28.4144 14.7296C28.4144 14.5587 28.3867 14.4189 28.3529 14.4189C28.3191 14.4189 28.2914 14.307 28.2914 14.1703C28.2914 14.0335 28.2637 13.9217 28.2299 13.9217C28.1961 13.9217 28.1684 13.8657 28.1684 13.7974C28.1684 13.729 28.1407 13.6731 28.1069 13.6731C28.0731 13.6731 28.0454 13.6307 28.0454 13.579C28.0454 13.4646 27.0339 12.4301 26.9221 12.4301C26.8783 12.4301 26.8026 12.3741 26.7539 12.3058C26.7051 12.2374 26.616 12.1815 26.5558 12.1815C26.4956 12.1815 26.4464 12.1535 26.4464 12.1193C26.4464 12.0851 26.3971 12.0572 26.337 12.0572C26.2767 12.0572 26.1876 12.0012 26.1389 11.9329C26.0901 11.8645 26.0135 11.8086 25.9687 11.8086C25.8565 11.8086 25.5854 11.5248 25.5854 11.4074C25.5854 11.3546 25.5577 11.3114 25.5239 11.3114C25.49 11.3114 25.4624 11.1995 25.4624 11.0628C25.4624 10.926 25.49 10.8142 25.5239 10.8142C25.5577 10.8142 25.5854 10.7702 25.5854 10.7165C25.5854 10.5909 25.7334 10.4413 25.8577 10.4413C25.9109 10.4413 25.9544 10.4133 25.9544 10.3791C25.9544 10.3449 26.0097 10.317 26.0774 10.317C26.145 10.317 26.2004 10.289 26.2004 10.2548C26.2004 10.2179 26.4259 10.1927 26.7539 10.1927C27.0819 10.1927 27.3074 10.2179 27.3074 10.2548C27.3074 10.289 27.4458 10.317 27.6149 10.317C27.784 10.317 27.9224 10.3449 27.9224 10.3791C27.9224 10.4133 27.9755 10.4413 28.0403 10.4413C28.1051 10.4413 28.1696 10.4759 28.1836 10.5184C28.2258 10.6465 28.4144 10.4095 28.4144 10.2281C28.4144 10.1403 28.4421 10.0684 28.4759 10.0684C28.5097 10.0684 28.5374 9.98445 28.5374 9.8819C28.5374 9.77935 28.5651 9.69545 28.5989 9.69545C28.6327 9.69545 28.6604 9.61155 28.6604 9.509C28.6604 9.40645 28.6881 9.32255 28.7219 9.32255C28.7557 9.32255 28.7834 9.23864 28.7834 9.1361C28.7834 9.03355 28.8111 8.94965 28.8449 8.94965C28.8787 8.94965 28.9064 8.86574 28.9064 8.76319C28.9064 8.59744 28.8859 8.57674 28.7219 8.57674C28.6204 8.57674 28.5374 8.54878 28.5374 8.51459C28.5374 8.48041 28.4544 8.45244 28.3529 8.45244C28.2514 8.45244 28.1684 8.42447 28.1684 8.39029C28.1684 8.35611 28.03 8.32814 27.8609 8.32814C27.6918 8.32814 27.5534 8.30017 27.5534 8.26599C27.5534 8.22777 27.2459 8.20384 26.7539 8.20384C26.2619 8.20384 25.9544 8.22777 25.9544 8.26599ZM43.1746 8.26599C43.1746 8.30017 43.0362 8.32814 42.8671 8.32814C42.6979 8.32814 42.5596 8.35611 42.5596 8.39029C42.5596 8.42447 42.4765 8.45244 42.3751 8.45244C42.2736 8.45244 42.1906 8.48041 42.1906 8.51459C42.1906 8.54878 42.1352 8.57674 42.0676 8.57674C41.9999 8.57674 41.9446 8.60471 41.9446 8.63889C41.9446 8.67308 41.8892 8.70104 41.8216 8.70104C41.7539 8.70104 41.6986 8.72901 41.6986 8.76319C41.6986 8.79738 41.6432 8.82535 41.5756 8.82535C41.5079 8.82535 41.4526 8.85331 41.4526 8.8875C41.4526 8.92168 41.4083 8.94965 41.3542 8.94965C41.3002 8.94965 41.1783 9.03355 41.0835 9.1361C40.9888 9.23864 40.88 9.32255 40.842 9.32255C40.7526 9.32255 40.2225 9.85716 40.2225 9.94728C40.2225 9.98507 40.1118 10.1234 39.9765 10.2548C39.8412 10.3862 39.7305 10.5378 39.7305 10.5918C39.7305 10.6457 39.7029 10.6899 39.669 10.6899C39.6352 10.6899 39.6075 10.7458 39.6075 10.8142C39.6075 10.8825 39.5799 10.9385 39.546 10.9385C39.5122 10.9385 39.4845 10.9944 39.4845 11.0628C39.4845 11.1311 39.4569 11.1871 39.423 11.1871C39.3892 11.1871 39.3615 11.243 39.3615 11.3114C39.3615 11.3797 39.3339 11.4357 39.3 11.4357C39.2662 11.4357 39.2385 11.4916 39.2385 11.56C39.2385 11.6283 39.2108 11.6843 39.177 11.6843C39.1432 11.6843 39.1155 11.7682 39.1155 11.8707C39.1155 11.9733 39.0878 12.0572 39.054 12.0572C39.0202 12.0572 38.9925 12.1411 38.9925 12.2436C38.9925 12.3462 38.9648 12.4301 38.931 12.4301C38.8972 12.4301 38.8695 12.5419 38.8695 12.6787C38.8695 12.8154 38.8418 12.9273 38.808 12.9273C38.7715 12.9273 38.7465 13.1552 38.7465 13.4866C38.7465 13.8181 38.7215 14.046 38.685 14.046C38.6512 14.046 38.6235 14.1578 38.6235 14.2946C38.6235 14.4313 38.6512 14.5432 38.685 14.5432C38.7192 14.5432 38.7465 14.7089 38.7465 14.9161C38.7465 15.1232 38.7738 15.289 38.808 15.289C38.8418 15.289 38.8695 15.4008 38.8695 15.5376C38.8695 15.6743 38.8972 15.7862 38.931 15.7862C38.9648 15.7862 38.9925 15.8421 38.9925 15.9105C38.9925 15.9788 39.0202 16.0348 39.054 16.0348C39.0878 16.0348 39.1155 16.0907 39.1155 16.1591C39.1155 16.2274 39.1432 16.2834 39.177 16.2834C39.2108 16.2834 39.2385 16.3258 39.2385 16.3776C39.2385 16.4922 40.1268 17.4021 40.2387 17.4021C40.2826 17.4021 40.3583 17.458 40.407 17.5264C40.4591 17.5994 40.5663 17.6507 40.6666 17.6507C40.7606 17.6507 40.8375 17.6787 40.8375 17.7128C40.8375 17.747 40.9206 17.775 41.022 17.775C41.1235 17.775 41.2066 17.803 41.2066 17.8371C41.2066 17.8713 41.3449 17.8993 41.5141 17.8993C41.6832 17.8993 41.8216 17.9273 41.8216 17.9614C41.8216 17.9977 42.0265 18.0236 42.3136 18.0236C42.6006 18.0236 42.8056 17.9977 42.8056 17.9614C42.8056 17.9273 42.9439 17.8993 43.1131 17.8993C43.2822 17.8993 43.4206 17.8713 43.4206 17.8371C43.4206 17.803 43.5313 17.775 43.6666 17.775C43.8019 17.775 43.9126 17.747 43.9126 17.7128C43.9126 17.6787 43.9679 17.6507 44.0356 17.6507C44.1032 17.6507 44.1586 17.6227 44.1586 17.5885C44.1586 17.5544 44.2355 17.5264 44.3295 17.5264C44.4299 17.5264 44.537 17.4751 44.5891 17.4021C44.6379 17.3337 44.7209 17.2778 44.7736 17.2778C44.8263 17.2778 44.9093 17.2219 44.9581 17.1535C45.0069 17.0851 45.0826 17.0292 45.1263 17.0292C45.2301 17.0292 46.2496 15.9989 46.2496 15.894C46.2496 15.8498 46.305 15.7733 46.3726 15.724C46.4403 15.6747 46.4956 15.5847 46.4956 15.5238C46.4956 15.4631 46.5233 15.4133 46.5571 15.4133C46.5909 15.4133 46.6186 15.3573 46.6186 15.289C46.6186 15.2206 46.6463 15.1647 46.6801 15.1647C46.7139 15.1647 46.7416 15.1087 46.7416 15.0404C46.7416 14.972 46.7693 14.9161 46.8031 14.9161C46.8369 14.9161 46.8646 14.8601 46.8646 14.7918C46.8646 14.7234 46.8923 14.6675 46.9261 14.6675C46.9599 14.6675 46.9876 14.6115 46.9876 14.5432C46.9876 14.4748 47.0153 14.4189 47.0491 14.4189C47.0829 14.4189 47.1106 14.335 47.1106 14.2324C47.1106 14.1299 47.1383 14.046 47.1721 14.046C47.2059 14.046 47.2336 13.9341 47.2336 13.7974C47.2336 13.6606 47.2613 13.5488 47.2951 13.5488C47.3293 13.5488 47.3566 13.383 47.3566 13.1759C47.3566 12.9687 47.3839 12.803 47.4181 12.803C47.456 12.803 47.4796 12.4922 47.4796 11.995C47.4796 11.4978 47.456 11.1871 47.4181 11.1871C47.3843 11.1871 47.3566 11.0752 47.3566 10.9385C47.3566 10.8017 47.3289 10.6899 47.2951 10.6899C47.2613 10.6899 47.2336 10.606 47.2336 10.5034C47.2336 10.4009 47.2059 10.317 47.1721 10.317C47.1383 10.317 47.1106 10.2392 47.1106 10.1442C47.1106 10.0428 47.0598 9.93454 46.9876 9.8819C46.92 9.83261 46.8646 9.75611 46.8646 9.71179C46.8646 9.59874 45.9642 8.70104 45.8508 8.70104C45.7995 8.70104 45.7576 8.67308 45.7576 8.63889C45.7576 8.60471 45.7023 8.57674 45.6346 8.57674C45.567 8.57674 45.5116 8.54878 45.5116 8.51459C45.5116 8.48041 45.4286 8.45244 45.3271 8.45244C45.2256 8.45244 45.1426 8.42447 45.1426 8.39029C45.1426 8.35611 45.0319 8.32814 44.8966 8.32814C44.7613 8.32814 44.6506 8.30017 44.6506 8.26599C44.6506 8.22802 44.3636 8.20384 43.9126 8.20384C43.4616 8.20384 43.1746 8.22802 43.1746 8.26599ZM53.5067 8.39029C53.5067 8.42447 53.4237 8.45244 53.3222 8.45244C53.2207 8.45244 53.1377 8.48041 53.1377 8.51459C53.1377 8.54878 53.0823 8.57674 53.0147 8.57674C52.947 8.57674 52.8917 8.60471 52.8917 8.63889C52.8917 8.67308 52.8363 8.70104 52.7687 8.70104C52.701 8.70104 52.6457 8.72901 52.6457 8.76319C52.6457 8.79738 52.603 8.82535 52.5508 8.82535C52.4986 8.82535 52.2369 9.04909 51.9692 9.32255C51.7015 9.59601 51.4674 9.81975 51.4491 9.81975C51.4307 9.81975 51.4157 9.62398 51.4157 9.3847C51.4157 9.1361 51.4421 8.94965 51.4772 8.94965C51.511 8.94965 51.5387 8.83778 51.5387 8.70104V8.45244H50.3702H49.2016V8.70104C49.2016 8.83778 49.174 8.94965 49.1401 8.94965C49.105 8.94965 49.0786 9.1361 49.0786 9.3847C49.0786 9.6333 49.0523 9.81975 49.0171 9.81975C48.982 9.81975 48.9556 10.0062 48.9556 10.2548C48.9556 10.5034 48.9293 10.6899 48.8941 10.6899C48.86 10.6899 48.8326 10.8556 48.8326 11.0628C48.8326 11.2699 48.8053 11.4357 48.7711 11.4357C48.7373 11.4357 48.7096 11.5755 48.7096 11.7464C48.7096 11.9173 48.682 12.0572 48.6481 12.0572C48.6143 12.0572 48.5866 12.197 48.5866 12.3679C48.5866 12.5388 48.559 12.6787 48.5251 12.6787C48.4909 12.6787 48.4636 12.8444 48.4636 13.0516C48.4636 13.2587 48.4363 13.4245 48.4021 13.4245C48.3683 13.4245 48.3406 13.5643 48.3406 13.7352C48.3406 13.9061 48.313 14.046 48.2791 14.046C48.2453 14.046 48.2176 14.1858 48.2176 14.3567C48.2176 14.5276 48.19 14.6675 48.1561 14.6675C48.1219 14.6675 48.0946 14.8332 48.0946 15.0404C48.0946 15.2475 48.0673 15.4133 48.0331 15.4133C47.9993 15.4133 47.9716 15.5531 47.9716 15.724C47.9716 15.8949 47.944 16.0348 47.9101 16.0348C47.8763 16.0348 47.8486 16.1746 47.8486 16.3455C47.8486 16.5164 47.821 16.6563 47.7871 16.6563C47.7533 16.6563 47.7256 16.7961 47.7256 16.967C47.7256 17.1379 47.698 17.2778 47.6641 17.2778C47.6299 17.2778 47.6026 17.4435 47.6026 17.6507C47.6026 17.8578 47.5753 18.0236 47.5411 18.0236C47.5073 18.0236 47.4796 18.1634 47.4796 18.3343C47.4796 18.5053 47.452 18.6451 47.4181 18.6451C47.3843 18.6451 47.3566 18.7849 47.3566 18.9558C47.3566 19.1268 47.3289 19.2666 47.2951 19.2666C47.2613 19.2666 47.2336 19.4064 47.2336 19.5773C47.2336 19.7483 47.2059 19.8881 47.1721 19.8881C47.1379 19.8881 47.1106 20.0539 47.1106 20.261C47.1106 20.4682 47.0833 20.6339 47.0491 20.6339C47.0153 20.6339 46.9876 20.7737 46.9876 20.9447C46.9876 21.1156 46.9599 21.2554 46.9261 21.2554C46.8923 21.2554 46.8646 21.3393 46.8646 21.4419V21.6283H48.1561C49.4066 21.6283 49.4477 21.6244 49.4477 21.504C49.4477 21.4356 49.4753 21.3797 49.5092 21.3797C49.543 21.3797 49.5707 21.2399 49.5707 21.069C49.5707 20.898 49.5983 20.7582 49.6322 20.7582C49.6664 20.7582 49.6937 20.5925 49.6937 20.3853C49.6937 20.1782 49.721 20.0124 49.7552 20.0124C49.789 20.0124 49.8167 19.8726 49.8167 19.7017C49.8167 19.5307 49.8443 19.3909 49.8782 19.3909C49.9124 19.3909 49.9397 19.2251 49.9397 19.018C49.9397 18.8108 49.967 18.6451 50.0012 18.6451C50.035 18.6451 50.0627 18.5053 50.0627 18.3343C50.0627 18.1634 50.0903 18.0236 50.1242 18.0236C50.158 18.0236 50.1857 17.9397 50.1857 17.8371C50.1857 17.7346 50.2133 17.6507 50.2472 17.6507C50.281 17.6507 50.3087 17.6787 50.3087 17.7128C50.3087 17.747 50.364 17.775 50.4317 17.775C50.4993 17.775 50.5547 17.803 50.5547 17.8371C50.5547 17.8713 50.6654 17.8993 50.8007 17.8993C50.936 17.8993 51.0467 17.9273 51.0467 17.9614C51.0467 17.9994 51.3337 18.0236 51.7847 18.0236C52.2357 18.0236 52.5227 17.9994 52.5227 17.9614C52.5227 17.9273 52.6334 17.8993 52.7687 17.8993C52.904 17.8993 53.0147 17.8713 53.0147 17.8371C53.0147 17.803 53.0977 17.775 53.1992 17.775C53.3007 17.775 53.3837 17.747 53.3837 17.7128C53.3837 17.6787 53.4391 17.6507 53.5067 17.6507C53.5744 17.6507 53.6297 17.6227 53.6297 17.5885C53.6297 17.5544 53.6851 17.5264 53.7527 17.5264C53.8204 17.5264 53.8757 17.4984 53.8757 17.4642C53.8757 17.4301 53.925 17.4021 53.9851 17.4021C54.0453 17.4021 54.1344 17.3462 54.1832 17.2778C54.232 17.2094 54.3077 17.1535 54.3515 17.1535C54.4487 17.1535 55.3517 16.2511 55.3517 16.1539C55.3517 16.1158 55.4348 16.0063 55.5362 15.9105C55.6377 15.8147 55.7207 15.6916 55.7207 15.637C55.7207 15.5823 55.7484 15.5376 55.7822 15.5376C55.8161 15.5376 55.8437 15.4878 55.8437 15.427C55.8437 15.3662 55.8991 15.2761 55.9667 15.2268C56.0344 15.1775 56.0897 15.0875 56.0897 15.0266C56.0897 14.9659 56.1174 14.9161 56.1512 14.9161C56.1851 14.9161 56.2127 14.8322 56.2127 14.7296C56.2127 14.6271 56.2404 14.5432 56.2742 14.5432C56.3081 14.5432 56.3357 14.4872 56.3357 14.4189C56.3357 14.3505 56.3634 14.2946 56.3972 14.2946C56.4311 14.2946 56.4587 14.2107 56.4587 14.1081C56.4587 14.0056 56.4864 13.9217 56.5202 13.9217C56.5541 13.9217 56.5817 13.8098 56.5817 13.6731C56.5817 13.5363 56.6094 13.4245 56.6432 13.4245C56.6771 13.4245 56.7047 13.2846 56.7047 13.1137C56.7047 12.9428 56.7324 12.803 56.7662 12.803C56.805 12.803 56.8277 12.3886 56.8277 11.6843C56.8277 10.9799 56.805 10.5656 56.7662 10.5656C56.7324 10.5656 56.7047 10.4537 56.7047 10.317C56.7047 10.1802 56.6771 10.0684 56.6432 10.0684C56.6094 10.0684 56.5817 10.0124 56.5817 9.94405C56.5817 9.87569 56.5541 9.81975 56.5202 9.81975C56.4864 9.81975 56.4587 9.76381 56.4587 9.69545C56.4587 9.62708 56.4311 9.57115 56.3972 9.57115C56.3634 9.57115 56.3357 9.52858 56.3357 9.47656C56.3357 9.3535 55.6901 8.70104 55.5683 8.70104C55.5169 8.70104 55.4747 8.67308 55.4747 8.63889C55.4747 8.60471 55.4194 8.57674 55.3517 8.57674C55.2841 8.57674 55.2287 8.54878 55.2287 8.51459C55.2287 8.48041 55.1734 8.45244 55.1057 8.45244C55.0381 8.45244 54.9827 8.42447 54.9827 8.39029C54.9827 8.35232 54.6957 8.32814 54.2447 8.32814C53.7937 8.32814 53.5067 8.35232 53.5067 8.39029ZM58.6728 8.70104C58.6728 8.83778 58.6451 8.94965 58.6113 8.94965C58.5771 8.94965 58.5498 9.1154 58.5498 9.32255C58.5498 9.52969 58.5225 9.69545 58.4883 9.69545C58.4544 9.69545 58.4268 9.83529 58.4268 10.0062C58.4268 10.1771 58.3991 10.317 58.3653 10.317C58.3314 10.317 58.3038 10.4568 58.3038 10.6277C58.3038 10.7986 58.2761 10.9385 58.2423 10.9385C58.2081 10.9385 58.1808 11.1042 58.1808 11.3114C58.1808 11.5185 58.1535 11.6843 58.1193 11.6843C58.0854 11.6843 58.0578 11.8241 58.0578 11.995C58.0578 12.1659 58.0301 12.3058 57.9963 12.3058C57.9624 12.3058 57.9348 12.4456 57.9348 12.6165C57.9348 12.7874 57.9071 12.9273 57.8733 12.9273C57.8394 12.9273 57.8118 13.0671 57.8118 13.238C57.8118 13.4089 57.7841 13.5488 57.7503 13.5488C57.7161 13.5488 57.6888 13.7145 57.6888 13.9217C57.6888 14.1288 57.6614 14.2946 57.6273 14.2946C57.5934 14.2946 57.5658 14.4344 57.5658 14.6053C57.5658 14.7762 57.5381 14.9161 57.5043 14.9161C57.4704 14.9161 57.4428 15.0559 57.4428 15.2268C57.4428 15.3977 57.4151 15.5376 57.3813 15.5376C57.3471 15.5376 57.3198 15.7033 57.3198 15.9105C57.3198 16.1176 57.2924 16.2834 57.2583 16.2834C57.2244 16.2834 57.1968 16.4232 57.1968 16.5941C57.1968 16.765 57.1691 16.9049 57.1353 16.9049C57.1014 16.9049 57.0737 17.0447 57.0737 17.2156C57.0737 17.3866 57.0461 17.5264 57.0122 17.5264C56.9784 17.5264 56.9507 17.6103 56.9507 17.7128V17.8993H58.2159C59.6539 17.8993 59.6568 17.8984 59.6568 17.4376C59.6568 17.2813 59.6845 17.1535 59.7183 17.1535C59.7521 17.1535 59.7798 17.0136 59.7798 16.8427C59.7798 16.6718 59.8075 16.532 59.8413 16.532C59.8755 16.532 59.9028 16.3662 59.9028 16.1591C59.9028 15.9519 59.9301 15.7862 59.9643 15.7862C59.9981 15.7862 60.0258 15.6463 60.0258 15.4754C60.0258 15.3045 60.0535 15.1647 60.0873 15.1647C60.1211 15.1647 60.1488 15.0248 60.1488 14.8539C60.1488 14.683 60.1765 14.5432 60.2103 14.5432C60.2441 14.5432 60.2718 14.4033 60.2718 14.2324C60.2718 14.0615 60.2995 13.9217 60.3333 13.9217C60.3675 13.9217 60.3948 13.7559 60.3948 13.5488C60.3948 13.3416 60.4221 13.1759 60.4563 13.1759C60.4901 13.1759 60.5178 13.036 60.5178 12.8651C60.5178 12.6942 60.5455 12.5544 60.5793 12.5544C60.6131 12.5544 60.6408 12.4145 60.6408 12.2436C60.6408 12.0727 60.6685 11.9329 60.7023 11.9329C60.7361 11.9329 60.7638 11.793 60.7638 11.6221C60.7638 11.4512 60.7915 11.3114 60.8253 11.3114C60.8591 11.3114 60.8868 11.1715 60.8868 11.0006C60.8868 10.8297 60.9145 10.6899 60.9483 10.6899C60.9825 10.6899 61.0098 10.5241 61.0098 10.317C61.0098 10.1098 61.0371 9.94405 61.0713 9.94405C61.1051 9.94405 61.1328 9.80421 61.1328 9.6333C61.1328 9.46239 61.1605 9.32255 61.1943 9.32255C61.2281 9.32255 61.2558 9.18271 61.2558 9.0118C61.2558 8.84088 61.2835 8.70104 61.3173 8.70104C61.3511 8.70104 61.3788 8.64511 61.3788 8.57674C61.3788 8.45623 61.3378 8.45244 60.0258 8.45244H58.6728V8.70104ZM68.5129 8.51459C68.5129 8.54878 68.5406 8.57674 68.5744 8.57674C68.6086 8.57674 68.6359 8.7425 68.6359 8.94965C68.6359 9.15679 68.6632 9.32255 68.6974 9.32255C68.7312 9.32255 68.7589 9.46239 68.7589 9.6333C68.7589 9.80421 68.7866 9.94405 68.8204 9.94405C68.8546 9.94405 68.8819 10.1098 68.8819 10.317C68.8819 10.5241 68.9092 10.6899 68.9434 10.6899C68.9772 10.6899 69.0049 10.8297 69.0049 11.0006C69.0049 11.1715 69.0326 11.3114 69.0664 11.3114C69.1002 11.3114 69.1279 11.4512 69.1279 11.6221C69.1279 11.793 69.1556 11.9329 69.1894 11.9329C69.2236 11.9329 69.2509 12.0986 69.2509 12.3058C69.2509 12.5129 69.2782 12.6787 69.3124 12.6787C69.3462 12.6787 69.3739 12.8185 69.3739 12.9894C69.3739 13.1603 69.4016 13.3002 69.4354 13.3002C69.4696 13.3002 69.4969 13.4659 69.4969 13.6731C69.4969 13.8802 69.5242 14.046 69.5584 14.046C69.5922 14.046 69.6199 14.1858 69.6199 14.3567C69.6199 14.5276 69.6476 14.6675 69.6814 14.6675C69.7152 14.6675 69.7429 14.8073 69.7429 14.9782C69.7429 15.1491 69.7706 15.289 69.8044 15.289C69.8386 15.289 69.8659 15.4547 69.8659 15.6619C69.8659 15.869 69.8932 16.0348 69.9274 16.0348C69.9612 16.0348 69.9889 16.1746 69.9889 16.3455C69.9889 16.5164 70.0166 16.6563 70.0504 16.6563C70.0846 16.6563 70.1119 16.822 70.1119 17.0292C70.1119 17.2363 70.0846 17.4021 70.0504 17.4021C70.0166 17.4021 69.9889 17.458 69.9889 17.5264C69.9889 17.5948 69.9612 17.6507 69.9274 17.6507C69.8936 17.6507 69.8659 17.693 69.8659 17.7447C69.8659 17.859 68.7313 19.018 68.6195 19.018C68.5758 19.018 68.5002 19.0739 68.4514 19.1423C68.4026 19.2107 68.3135 19.2666 68.2533 19.2666C68.1932 19.2666 68.1439 19.2946 68.1439 19.3287C68.1439 19.3629 68.0885 19.3909 68.0209 19.3909C67.9532 19.3909 67.8979 19.4189 67.8979 19.453C67.8979 19.4872 67.8425 19.5152 67.7749 19.5152C67.7072 19.5152 67.6519 19.5432 67.6519 19.5773C67.6519 19.6115 67.5965 19.6395 67.5289 19.6395C67.4612 19.6395 67.4059 19.6675 67.4059 19.7017C67.4059 19.7358 67.3505 19.7638 67.2829 19.7638C67.2009 19.7638 67.1599 19.8053 67.1599 19.8881C67.1599 19.9565 67.1875 20.0124 67.2214 20.0124C67.2552 20.0124 67.2829 20.0963 67.2829 20.1989C67.2829 20.3014 67.3105 20.3853 67.3444 20.3853C67.3782 20.3853 67.4059 20.4692 67.4059 20.5718C67.4059 20.6743 67.4335 20.7582 67.4674 20.7582C67.5012 20.7582 67.5289 20.8421 67.5289 20.9447C67.5289 21.0472 67.5566 21.1311 67.5904 21.1311C67.6242 21.1311 67.6519 21.215 67.6519 21.3176C67.6519 21.4201 67.6796 21.504 67.7134 21.504C67.7472 21.504 67.7749 21.5759 67.7749 21.6638C67.7749 21.7517 67.8144 21.8636 67.8628 21.9124C67.9626 22.0133 68.2669 22.0334 68.2669 21.9391C68.2669 21.9049 68.3222 21.8769 68.3899 21.8769C68.4575 21.8769 68.5129 21.8489 68.5129 21.8148C68.5129 21.7806 68.5959 21.7526 68.6974 21.7526C68.7989 21.7526 68.8819 21.7246 68.8819 21.6905C68.8819 21.6563 68.9372 21.6283 69.0049 21.6283C69.0725 21.6283 69.1279 21.6003 69.1279 21.5662C69.1279 21.532 69.1772 21.504 69.2373 21.504C69.2975 21.504 69.3866 21.4481 69.4354 21.3797C69.4842 21.3113 69.5622 21.2554 69.6088 21.2554C69.6554 21.2554 69.7711 21.1715 69.8659 21.069C69.9607 20.9664 70.0691 20.8825 70.1067 20.8825C70.1953 20.8825 71.2189 19.8492 71.2189 19.7598C71.2189 19.7225 71.3296 19.5844 71.4649 19.453C71.6002 19.3217 71.7109 19.1762 71.7109 19.1298C71.7109 19.0834 71.7663 19.0051 71.8339 18.9558C71.9016 18.9066 71.9569 18.8227 71.9569 18.7694C71.9569 18.7161 72.0123 18.6322 72.0799 18.5829C72.1476 18.5337 72.2029 18.4498 72.2029 18.3965C72.2029 18.3432 72.2583 18.2593 72.3259 18.21C72.3936 18.1608 72.4489 18.0769 72.4489 18.0236C72.4489 17.9703 72.5043 17.8864 72.5719 17.8371C72.6396 17.7879 72.6949 17.6978 72.6949 17.637C72.6949 17.5762 72.7226 17.5264 72.7564 17.5264C72.7903 17.5264 72.8179 17.4705 72.8179 17.4021C72.8179 17.3337 72.8456 17.2778 72.8794 17.2778C72.9133 17.2778 72.9409 17.228 72.9409 17.1672C72.9409 17.1064 72.9963 17.0163 73.0639 16.967C73.1316 16.9177 73.187 16.8277 73.187 16.7668C73.187 16.7061 73.2146 16.6563 73.2485 16.6563C73.2823 16.6563 73.31 16.6003 73.31 16.532C73.31 16.4636 73.3376 16.4077 73.3715 16.4077C73.4053 16.4077 73.433 16.3517 73.433 16.2834C73.433 16.215 73.4606 16.1591 73.4945 16.1591C73.5283 16.1591 73.556 16.1031 73.556 16.0348C73.556 15.9664 73.5836 15.9105 73.6175 15.9105C73.6513 15.9105 73.679 15.8545 73.679 15.7862C73.679 15.7178 73.7066 15.6619 73.7405 15.6619C73.7743 15.6619 73.802 15.6059 73.802 15.5376C73.802 15.4692 73.8296 15.4133 73.8635 15.4133C73.8973 15.4133 73.925 15.3573 73.925 15.289C73.925 15.2206 73.9526 15.1647 73.9865 15.1647C74.0203 15.1647 74.048 15.1087 74.048 15.0404C74.048 14.972 74.0756 14.9161 74.1095 14.9161C74.1433 14.9161 74.171 14.8322 74.171 14.7296C74.171 14.6271 74.1986 14.5432 74.2325 14.5432C74.2663 14.5432 74.294 14.4872 74.294 14.4189C74.294 14.3505 74.3216 14.2946 74.3555 14.2946C74.3893 14.2946 74.417 14.2386 74.417 14.1703C74.417 14.1019 74.4446 14.046 74.4785 14.046C74.5123 14.046 74.54 13.99 74.54 13.9217C74.54 13.8533 74.5676 13.7974 74.6015 13.7974C74.6353 13.7974 74.663 13.7414 74.663 13.6731C74.663 13.6047 74.6906 13.5488 74.7245 13.5488C74.7583 13.5488 74.786 13.4928 74.786 13.4245C74.786 13.3561 74.8136 13.3002 74.8475 13.3002C74.8813 13.3002 74.909 13.2442 74.909 13.1759C74.909 13.1075 74.9366 13.0516 74.9705 13.0516C75.0043 13.0516 75.032 12.9677 75.032 12.8651C75.032 12.7626 75.0596 12.6787 75.0935 12.6787C75.1273 12.6787 75.155 12.6227 75.155 12.5544C75.155 12.486 75.1826 12.4301 75.2165 12.4301C75.2503 12.4301 75.278 12.3741 75.278 12.3058C75.278 12.2374 75.3056 12.1815 75.3395 12.1815C75.3733 12.1815 75.401 12.1255 75.401 12.0572C75.401 11.9888 75.4286 11.9329 75.4625 11.9329C75.4963 11.9329 75.524 11.8769 75.524 11.8086C75.524 11.7402 75.5517 11.6843 75.5855 11.6843C75.6193 11.6843 75.647 11.6283 75.647 11.56C75.647 11.4916 75.6747 11.4357 75.7085 11.4357C75.7423 11.4357 75.77 11.3797 75.77 11.3114C75.77 11.243 75.7977 11.1871 75.8315 11.1871C75.8653 11.1871 75.893 11.1032 75.893 11.0006C75.893 10.8981 75.9207 10.8142 75.9545 10.8142C75.9883 10.8142 76.016 10.7582 76.016 10.6899C76.016 10.6215 76.0437 10.5656 76.0775 10.5656C76.1113 10.5656 76.139 10.5096 76.139 10.4413C76.139 10.3729 76.1667 10.317 76.2005 10.317C76.2343 10.317 76.262 10.261 76.262 10.1927C76.262 10.1243 76.2897 10.0684 76.3235 10.0684C76.3573 10.0684 76.385 10.0124 76.385 9.94405C76.385 9.87569 76.4127 9.81975 76.4465 9.81975C76.4803 9.81975 76.508 9.76381 76.508 9.69545C76.508 9.62708 76.5357 9.57115 76.5695 9.57115C76.6033 9.57115 76.631 9.51521 76.631 9.44685C76.631 9.37848 76.6587 9.32255 76.6925 9.32255C76.7263 9.32255 76.754 9.26661 76.754 9.19825C76.754 9.12988 76.7817 9.07395 76.8155 9.07395C76.8493 9.07395 76.877 8.99004 76.877 8.8875C76.877 8.78495 76.9047 8.70104 76.9385 8.70104C76.9723 8.70104 77 8.64511 77 8.57674C77 8.45623 76.959 8.45244 75.647 8.45244C74.335 8.45244 74.294 8.45623 74.294 8.57674C74.294 8.64511 74.2663 8.70104 74.2325 8.70104C74.1986 8.70104 74.171 8.78495 74.171 8.8875C74.171 8.99004 74.1433 9.07395 74.1095 9.07395C74.0756 9.07395 74.048 9.12988 74.048 9.19825C74.048 9.26661 74.0203 9.32255 73.9865 9.32255C73.9526 9.32255 73.925 9.40645 73.925 9.509C73.925 9.61155 73.8973 9.69545 73.8635 9.69545C73.8296 9.69545 73.802 9.77935 73.802 9.8819C73.802 9.98445 73.7743 10.0684 73.7405 10.0684C73.7066 10.0684 73.679 10.1243 73.679 10.1927C73.679 10.261 73.6513 10.317 73.6175 10.317C73.5836 10.317 73.556 10.4009 73.556 10.5034C73.556 10.606 73.5283 10.6899 73.4945 10.6899C73.4606 10.6899 73.433 10.7458 73.433 10.8142C73.433 10.8825 73.4053 10.9385 73.3715 10.9385C73.3376 10.9385 73.31 11.0224 73.31 11.1249C73.31 11.2275 73.2823 11.3114 73.2485 11.3114C73.2146 11.3114 73.187 11.3953 73.187 11.4978C73.187 11.6004 73.1593 11.6843 73.1255 11.6843C73.0916 11.6843 73.0639 11.7402 73.0639 11.8086C73.0639 11.8769 73.0363 11.9329 73.0024 11.9329C72.9686 11.9329 72.9409 12.0168 72.9409 12.1193C72.9409 12.2219 72.9133 12.3058 72.8794 12.3058C72.8456 12.3058 72.8179 12.3617 72.8179 12.4301C72.8179 12.4984 72.7903 12.5544 72.7564 12.5544C72.7226 12.5544 72.6949 12.6383 72.6949 12.7408C72.6949 12.8434 72.6673 12.9273 72.6334 12.9273C72.5996 12.9273 72.5719 13.0112 72.5719 13.1137C72.5719 13.2163 72.5443 13.3002 72.5104 13.3002C72.4766 13.3002 72.4489 13.3841 72.4489 13.4866C72.4489 13.5892 72.4213 13.6731 72.3874 13.6731C72.3536 13.6731 72.3259 13.757 72.3259 13.8595C72.3259 13.9621 72.2983 14.046 72.2644 14.046C72.2306 14.046 72.2029 14.1299 72.2029 14.2324C72.2029 14.335 72.1753 14.4189 72.1414 14.4189C72.1076 14.4189 72.0799 14.5028 72.0799 14.6053C72.0799 14.7079 72.0523 14.7918 72.0184 14.7918C71.9846 14.7918 71.9569 14.7358 71.9569 14.6675C71.9569 14.5991 71.9293 14.5432 71.8954 14.5432C71.8585 14.5432 71.8339 14.2946 71.8339 13.9217C71.8339 13.5488 71.8093 13.3002 71.7724 13.3002C71.736 13.3002 71.7109 13.0723 71.7109 12.7408C71.7109 12.4094 71.6859 12.1815 71.6494 12.1815C71.6125 12.1815 71.5879 11.9329 71.5879 11.56C71.5879 11.1871 71.5633 10.9385 71.5264 10.9385C71.4895 10.9385 71.4649 10.6899 71.4649 10.317C71.4649 9.94405 71.4403 9.69545 71.4034 9.69545C71.3665 9.69545 71.3419 9.44685 71.3419 9.07395V8.45244H69.9274C69.0254 8.45244 68.5129 8.47494 68.5129 8.51459ZM44.3754 10.595C44.5561 10.7775 44.6506 10.927 44.6506 11.0301C44.6506 11.1164 44.6783 11.1871 44.7121 11.1871C44.7499 11.1871 44.7736 11.4978 44.7736 11.995C44.7736 12.4922 44.7499 12.803 44.7121 12.803C44.6783 12.803 44.6506 12.9428 44.6506 13.1137C44.6506 13.2846 44.6229 13.4245 44.5891 13.4245C44.5553 13.4245 44.5276 13.5363 44.5276 13.6731C44.5276 13.8098 44.4999 13.9217 44.4661 13.9217C44.4323 13.9217 44.4046 14.0056 44.4046 14.1081C44.4046 14.2107 44.3769 14.2946 44.3431 14.2946C44.3093 14.2946 44.2816 14.3505 44.2816 14.4189C44.2816 14.4872 44.2539 14.5432 44.2201 14.5432C44.1863 14.5432 44.1586 14.5991 44.1586 14.6675C44.1586 14.7358 44.1309 14.7918 44.0971 14.7918C44.0633 14.7918 44.0356 14.8416 44.0356 14.9023C44.0356 14.9632 43.9802 15.0532 43.9126 15.1025C43.8449 15.1518 43.7896 15.2292 43.7896 15.2744C43.7896 15.3811 43.5118 15.6619 43.4062 15.6619C43.3614 15.6619 43.2848 15.7178 43.2361 15.7862C43.1605 15.8921 43.0769 15.9105 42.669 15.9105C42.3911 15.9105 42.1906 15.8844 42.1906 15.8483C42.1906 15.8141 42.1481 15.7862 42.0963 15.7862C41.9738 15.7862 41.5756 15.3837 41.5756 15.26C41.5756 15.2076 41.5479 15.1647 41.5141 15.1647C41.4755 15.1647 41.4526 14.7711 41.4526 14.1081C41.4526 13.4452 41.4755 13.0516 41.5141 13.0516C41.5479 13.0516 41.5756 12.9397 41.5756 12.803C41.5756 12.6662 41.6032 12.5544 41.6371 12.5544C41.6709 12.5544 41.6986 12.4705 41.6986 12.3679C41.6986 12.2654 41.7262 12.1815 41.7601 12.1815C41.7939 12.1815 41.8216 12.0976 41.8216 11.995C41.8216 11.8925 41.8492 11.8086 41.8831 11.8086C41.9169 11.8086 41.9446 11.7526 41.9446 11.6843C41.9446 11.6159 41.9722 11.56 42.0061 11.56C42.0399 11.56 42.0676 11.504 42.0676 11.4357C42.0676 11.3673 42.0952 11.3114 42.1291 11.3114C42.1629 11.3114 42.1906 11.2688 42.1906 11.2168C42.1906 11.0937 42.8362 10.4413 42.958 10.4413C43.0094 10.4413 43.0516 10.4133 43.0516 10.3791C43.0516 10.3426 43.2674 10.317 43.5759 10.317H44.1003L44.3754 10.595ZM53.7247 10.5938C53.8078 10.6777 53.8757 10.7896 53.8757 10.8424C53.8757 10.8953 53.9034 10.9385 53.9372 10.9385C53.971 10.9385 53.9987 10.9944 53.9987 11.0628C53.9987 11.1311 54.0264 11.1871 54.0602 11.1871C54.0978 11.1871 54.1217 11.4771 54.1217 11.9329C54.1217 12.3886 54.0978 12.6787 54.0602 12.6787C54.0264 12.6787 53.9987 12.8185 53.9987 12.9894C53.9987 13.1603 53.971 13.3002 53.9372 13.3002C53.9034 13.3002 53.8757 13.3841 53.8757 13.4866C53.8757 13.5892 53.848 13.6731 53.8142 13.6731C53.7804 13.6731 53.7527 13.757 53.7527 13.8595C53.7527 13.9621 53.725 14.046 53.6912 14.046C53.6574 14.046 53.6297 14.1019 53.6297 14.1703C53.6297 14.2386 53.602 14.2946 53.5682 14.2946C53.5344 14.2946 53.5067 14.3505 53.5067 14.4189C53.5067 14.4872 53.479 14.5432 53.4452 14.5432C53.4114 14.5432 53.3837 14.593 53.3837 14.6537C53.3837 14.7146 53.3284 14.8046 53.2607 14.8539C53.1931 14.9032 53.1377 14.98 53.1377 15.0247C53.1377 15.1302 52.6116 15.6619 52.5071 15.6619C52.463 15.6619 52.387 15.7178 52.3382 15.7862C52.26 15.8959 52.179 15.9105 51.6481 15.9105C51.2881 15.9105 51.0467 15.8855 51.0467 15.8483C51.0467 15.8141 50.9913 15.7862 50.9237 15.7862C50.856 15.7862 50.8007 15.7582 50.8007 15.724C50.8007 15.6898 50.7453 15.6619 50.6777 15.6619C50.61 15.6619 50.5547 15.6339 50.5547 15.5997C50.5547 15.5655 50.5823 15.5376 50.6162 15.5376C50.6504 15.5376 50.6777 15.3718 50.6777 15.1647C50.6777 14.9575 50.705 14.7918 50.7392 14.7918C50.7734 14.7918 50.8007 14.626 50.8007 14.4189C50.8007 14.2117 50.828 14.046 50.8622 14.046C50.896 14.046 50.9237 13.9061 50.9237 13.7352C50.9237 13.5643 50.9513 13.4245 50.9852 13.4245C51.019 13.4245 51.0467 13.2846 51.0467 13.1137C51.0467 12.9428 51.0743 12.803 51.1082 12.803C51.142 12.803 51.1697 12.6911 51.1697 12.5544C51.1697 12.4176 51.1973 12.3058 51.2312 12.3058C51.265 12.3058 51.2927 12.2219 51.2927 12.1193C51.2927 12.0168 51.3204 11.9329 51.3542 11.9329C51.388 11.9329 51.4157 11.8769 51.4157 11.8086C51.4157 11.7402 51.4434 11.6843 51.4772 11.6843C51.511 11.6843 51.5387 11.6345 51.5387 11.5737C51.5387 11.5128 51.594 11.4228 51.6617 11.3735C51.7293 11.3242 51.7847 11.2472 51.7847 11.2023C51.7847 11.0963 52.1869 10.6899 52.2918 10.6899C52.3362 10.6899 52.4124 10.6339 52.4612 10.5656C52.5376 10.4584 52.6204 10.4413 53.0618 10.4413C53.5234 10.4413 53.5887 10.4563 53.7247 10.5938Z" fill="#025157"/>
<path d="M89.5 6L90.9593 10.4914H95.6819L91.8613 13.2672L93.3206 17.7586L89.5 14.9828L85.6794 17.7586L87.1387 13.2672L83.3181 10.4914H88.0407L89.5 6Z" fill="#F6CD26"/>
<path d="M104.794 6L106.253 10.4914H110.976L107.155 13.2672L108.615 17.7586L104.794 14.9828L100.973 17.7586L102.433 13.2672L98.6121 10.4914H103.335L104.794 6Z" fill="#F6CD26"/>
<path d="M120.088 6L121.548 10.4914H126.27L122.449 13.2672L123.909 17.7586L120.088 14.9828L116.268 17.7586L117.727 13.2672L113.906 10.4914H118.629L120.088 6Z" fill="#F6CD26"/>
<path d="M135.382 6L136.842 10.4914H141.564L137.744 13.2672L139.203 17.7586L135.382 14.9828L131.562 17.7586L133.021 13.2672L129.2 10.4914H133.923L135.382 6Z" fill="#F6CD26"/>
<path d="M150.676 6L152.136 10.4914H156.858L153.038 13.2672L154.497 17.7586L150.676 14.9828L146.856 17.7586L148.315 13.2672L144.495 10.4914H149.217L150.676 6Z" fill="#F6CD26"/>
</svg>
